<svg width="32" height="33" viewBox="0 0 32 33" fill="none" xmlns="http://www.w3.org/2000/svg">
<path d="M27 6.95068H5C4.44772 6.95068 4 7.3984 4 7.95068V25.9507C4 26.503 4.44772 26.9507 5 26.9507H27C27.5523 26.9507 28 26.503 28 25.9507V7.95068C28 7.3984 27.5523 6.95068 27 6.95068Z" stroke="black" stroke-width="3" stroke-linecap="round" stroke-linejoin="round"/>
<path d="M9.5 14.4507C10.6046 14.4507 11.5 13.5553 11.5 12.4507C11.5 11.3461 10.6046 10.4507 9.5 10.4507C8.39543 10.4507 7.5 11.3461 7.5 12.4507C7.5 13.5553 8.39543 14.4507 9.5 14.4507Z" fill="black"/>
<path d="M15.5 14.4507C16.6046 14.4507 17.5 13.5553 17.5 12.4507C17.5 11.3461 16.6046 10.4507 15.5 10.4507C14.3954 10.4507 13.5 11.3461 13.5 12.4507C13.5 13.5553 14.3954 14.4507 15.5 14.4507Z" fill="black"/>
</svg>
