<svg width="32" height="33" viewBox="0 0 32 33" fill="none" xmlns="http://www.w3.org/2000/svg">
<path d="M7.7087 26.4645L2 16.95L7.7087 7.43545C7.79754 7.28738 7.92322 7.16483 8.07349 7.07975C8.22376 6.99467 8.3935 6.94995 8.56619 6.94995H27C27.2652 6.94995 27.5196 7.05531 27.7071 7.24284C27.8946 7.43038 28 7.68473 28 7.94995V25.95C28 26.2152 27.8946 26.4695 27.7071 26.6571C27.5196 26.8446 27.2652 26.95 27 26.95H8.56619C8.3935 26.95 8.22376 26.9052 8.07349 26.8202C7.92322 26.7351 7.79754 26.6125 7.7087 26.4645V26.4645Z" stroke="black" stroke-width="3" stroke-linecap="round" stroke-linejoin="round"/>
<path d="M20 13.95L14 19.95" stroke="black" stroke-width="3" stroke-linecap="round" stroke-linejoin="round"/>
<path d="M20 19.95L14 13.95" stroke="black" stroke-width="3" stroke-linecap="round" stroke-linejoin="round"/>
</svg>
