<svg width="32" height="33" viewBox="0 0 32 33" fill="none" xmlns="http://www.w3.org/2000/svg">
<path d="M12.5 2.44995H19.5" stroke="black" stroke-width="3" stroke-linecap="round" stroke-linejoin="round"/>
<path d="M23.0007 6.94995H9.00073C7.89616 6.94995 7.00073 7.84538 7.00073 8.94995V27.45C7.00073 28.5545 7.89616 29.45 9.00073 29.45H23.0007C24.1053 29.45 25.0007 28.5545 25.0007 27.45V8.94995C25.0007 7.84538 24.1053 6.94995 23.0007 6.94995Z" stroke="black" stroke-width="3" stroke-linecap="round" stroke-linejoin="round"/>
<path d="M16 12.95V17.95" stroke="black" stroke-width="3" stroke-linecap="round" stroke-linejoin="round"/>
<path d="M16 24.95C17.1046 24.95 18 24.0545 18 22.95C18 21.8454 17.1046 20.95 16 20.95C14.8954 20.95 14 21.8454 14 22.95C14 24.0545 14.8954 24.95 16 24.95Z" fill="black"/>
</svg>
