<svg width="32" height="33" viewBox="0 0 32 33" fill="none" xmlns="http://www.w3.org/2000/svg">
<path d="M26 23.9506V9.95056C26 8.84599 25.1046 7.95056 24 7.95056L5.5 7.95056C4.39543 7.95056 3.5 8.84599 3.5 9.95056V23.9506C3.5 25.0551 4.39543 25.9506 5.5 25.9506H24C25.1046 25.9506 26 25.0551 26 23.9506Z" stroke="black" stroke-width="3" stroke-linecap="round" stroke-linejoin="round"/>
<path d="M30.5 12.9506V20.9506" stroke="black" stroke-width="3" stroke-linecap="round" stroke-linejoin="round"/>
<path d="M14.5 12.45V15.95" stroke="black" stroke-width="3" stroke-linecap="round" stroke-linejoin="round"/>
<path d="M14.5 22.95C15.6046 22.95 16.5 22.0545 16.5 20.95C16.5 19.8454 15.6046 18.95 14.5 18.95C13.3954 18.95 12.5 19.8454 12.5 20.95C12.5 22.0545 13.3954 22.95 14.5 22.95Z" fill="black"/>
</svg>
