<svg width="32" height="33" viewBox="0 0 32 33" fill="none" xmlns="http://www.w3.org/2000/svg">
<path d="M13.5 12.95H18.5L13.5 18.95H18.5" stroke="black" stroke-width="3" stroke-linecap="round" stroke-linejoin="round"/>
<path d="M7.02535 13.95C7.02369 12.764 7.25679 11.5894 7.7112 10.4939C8.16561 9.39845 8.83235 8.40374 9.67299 7.56714C10.5136 6.73054 11.5115 6.06859 12.6092 5.61946C13.7069 5.17032 14.8825 4.94288 16.0685 4.95025C21.0172 4.98704 24.9756 9.10041 24.9756 14.063V14.95C24.9756 19.427 25.9122 22.0249 26.7372 23.4448C26.8261 23.5965 26.8734 23.769 26.8743 23.9448C26.8752 24.1206 26.8298 24.2936 26.7426 24.4462C26.6553 24.5989 26.5294 24.7258 26.3774 24.8143C26.2254 24.9027 26.0528 24.9495 25.877 24.95H6.12292C5.94707 24.9495 5.77445 24.9027 5.62248 24.8143C5.4705 24.7258 5.34454 24.5988 5.25731 24.4461C5.17008 24.2934 5.12465 24.1204 5.12563 23.9446C5.1266 23.7687 5.17393 23.5963 5.26284 23.4445C6.08825 22.0246 7.02534 19.4267 7.02534 14.95L7.02535 13.95Z" stroke="black" stroke-width="3" stroke-linecap="round" stroke-linejoin="round"/>
<path d="M12 24.95V25.95C12 27.0108 12.4214 28.0282 13.1716 28.7784C13.9217 29.5285 14.9391 29.95 16 29.95C17.0609 29.95 18.0783 29.5285 18.8284 28.7784C19.5786 28.0282 20 27.0108 20 25.95V24.95" stroke="black" stroke-width="3" stroke-linecap="round" stroke-linejoin="round"/>
</svg>
