<svg width="32" height="33" viewBox="0 0 32 33" fill="none" xmlns="http://www.w3.org/2000/svg">
<path d="M12 29.45H20" stroke="black" stroke-width="3" stroke-linecap="round" stroke-linejoin="round"/>
<path d="M7.02535 13.95C7.02369 12.764 7.25679 11.5894 7.7112 10.4939C8.16561 9.39845 8.83235 8.40374 9.67299 7.56714C10.5136 6.73054 11.5115 6.06859 12.6092 5.61946C13.7069 5.17032 14.8825 4.94288 16.0685 4.95025C21.0172 4.98704 24.9756 9.10041 24.9756 14.063V14.45C24.9756 18.927 25.9122 21.5249 26.7372 22.9448C26.8261 23.0965 26.8734 23.269 26.8743 23.4448C26.8752 23.6206 26.8298 23.7936 26.7426 23.9462C26.6553 24.0989 26.5294 24.2258 26.3774 24.3143C26.2254 24.4027 26.0528 24.4495 25.877 24.45H6.12292C5.94707 24.4495 5.77445 24.4027 5.62248 24.3143C5.4705 24.2258 5.34454 24.0988 5.25731 23.9461C5.17008 23.7934 5.12465 23.6204 5.12563 23.4446C5.1266 23.2687 5.17393 23.0963 5.26284 22.9445C6.08825 21.5246 7.02534 18.9267 7.02534 14.45L7.02535 13.95Z" stroke="black" stroke-width="3" stroke-linecap="round" stroke-linejoin="round"/>
</svg>
