<svg width="33" height="34" viewBox="0 0 33 34" fill="none" xmlns="http://www.w3.org/2000/svg">
<path d="M7.9316 14.495C7.92994 13.3091 8.16304 12.1345 8.61745 11.039C9.07186 9.9435 9.7386 8.94879 10.5792 8.11218C11.4199 7.27558 12.4178 6.61364 13.5154 6.1645C14.6131 5.71537 15.7888 5.48793 16.9748 5.49529C21.9235 5.53208 25.8818 9.64546 25.8818 14.608V15.495C25.8818 19.972 26.8185 22.5699 27.6435 23.9898C27.7323 24.1415 27.7796 24.314 27.7806 24.4898C27.7815 24.6657 27.736 24.8386 27.6488 24.9913C27.5616 25.1439 27.4356 25.2709 27.2836 25.3593C27.1317 25.4478 26.9591 25.4946 26.7833 25.495H7.02917C6.85332 25.4946 6.6807 25.4478 6.52873 25.3593C6.37675 25.2708 6.25079 25.1439 6.16356 24.9912C6.07633 24.8385 6.0309 24.6655 6.03188 24.4896C6.03285 24.3138 6.08018 24.1413 6.16909 23.9896C6.9945 22.5696 7.93159 19.9718 7.93159 15.495L7.9316 14.495Z" stroke="#676879" stroke-width="3" stroke-linecap="round" stroke-linejoin="round"/>
<path d="M12.9062 25.4951V26.4951C12.9063 27.556 13.3277 28.5734 14.0778 29.3235C14.828 30.0737 15.8454 30.4951 16.9062 30.4951C17.9671 30.4951 18.9845 30.0737 19.7347 29.3235C20.4848 28.5734 20.9062 27.556 20.9062 26.4951V25.4951" stroke="#676879" stroke-width="3" stroke-linecap="round" stroke-linejoin="round"/>
<circle cx="24.673" cy="7.82227" r="6.32715" fill="#F7352D" stroke="#F2F5F9" stroke-width="1.73817"/>
</svg>
