<svg width="32" height="33" viewBox="0 0 32 33" fill="none" xmlns="http://www.w3.org/2000/svg">
<path d="M7.02535 14.9499C7.02205 13.7692 7.25176 12.5994 7.70133 11.5076C8.15089 10.4158 8.81147 9.42341 9.64522 8.58734C10.479 7.75126 11.4695 7.08791 12.56 6.6353C13.6506 6.18269 14.8197 5.94971 16.0005 5.94971C17.1812 5.94971 18.3503 6.18269 19.4409 6.6353C20.5314 7.08791 21.522 7.75126 22.3557 8.58734C23.1895 9.42341 23.85 10.4158 24.2996 11.5076C24.7492 12.5994 24.9789 13.7692 24.9756 14.9499V14.9499C24.9756 19.4269 25.9122 22.0248 26.7372 23.4447C26.8261 23.5964 26.8734 23.7689 26.8743 23.9447C26.8752 24.1205 26.8298 24.2935 26.7426 24.4462C26.6553 24.5988 26.5294 24.7258 26.3774 24.8142C26.2254 24.9027 26.0528 24.9495 25.877 24.9499H6.12292C5.94707 24.9495 5.77445 24.9026 5.62248 24.8142C5.4705 24.7257 5.34454 24.5987 5.25731 24.446C5.17008 24.2934 5.12465 24.1204 5.12563 23.9445C5.1266 23.7687 5.17393 23.5962 5.26284 23.4445C6.08825 22.0245 7.02534 19.4266 7.02534 14.9499H7.02535Z" stroke="black" stroke-width="3" stroke-linecap="round" stroke-linejoin="round"/>
<path d="M12 24.95V25.95C12 27.0108 12.4214 28.0282 13.1716 28.7784C13.9217 29.5285 14.9391 29.95 16 29.95C17.0609 29.95 18.0783 29.5285 18.8284 28.7784C19.5786 28.0282 20 27.0108 20 25.95V24.95" stroke="black" stroke-width="3" stroke-linecap="round" stroke-linejoin="round"/>
<path d="M23.462 3.10217C25.6534 4.48556 27.4199 6.44756 28.5664 8.77158" stroke="black" stroke-width="3" stroke-linecap="round" stroke-linejoin="round"/>
<path d="M3.43347 8.77158C4.58006 6.44756 6.34654 4.48556 8.53788 3.10217" stroke="black" stroke-width="3" stroke-linecap="round" stroke-linejoin="round"/>
</svg>
