<svg width="32" height="33" viewBox="0 0 32 33" fill="none" xmlns="http://www.w3.org/2000/svg">
<path d="M12 29.4474H20" stroke="black" stroke-width="3" stroke-linecap="round" stroke-linejoin="round"/>
<path d="M6 5.94995L26 27.95" stroke="black" stroke-width="3" stroke-linecap="round" stroke-linejoin="round"/>
<path d="M22.8159 24.4473H6.12304C5.9472 24.4469 5.77458 24.4001 5.6226 24.3116C5.47062 24.2231 5.34466 24.0961 5.25743 23.9435C5.1702 23.7908 5.12478 23.6178 5.12575 23.4419C5.12672 23.2661 5.17405 23.0936 5.26296 22.9419C6.08837 21.5219 7.02546 18.9241 7.02546 14.4473V13.9473C7.02233 12.1189 7.57771 10.3331 8.61728 8.82886" stroke="black" stroke-width="3" stroke-linecap="round" stroke-linejoin="round"/>
<path d="M12.4939 5.66015C13.6237 5.17935 14.8406 4.93679 16.0685 4.94761C21.0172 4.9844 24.9755 9.09778 24.9755 14.0603V14.4474C24.9755 16.8202 25.2386 18.6652 25.6088 20.0867" stroke="black" stroke-width="3" stroke-linecap="round" stroke-linejoin="round"/>
</svg>
