<svg width="32" height="33" viewBox="0 0 32 33" fill="none" xmlns="http://www.w3.org/2000/svg">
<path d="M12 29.45H20" stroke="black" stroke-width="3" stroke-linecap="round" stroke-linejoin="round"/>
<path d="M7.02547 14.9499C7.02217 13.7692 7.25189 12.5994 7.70145 11.5076C8.15102 10.4158 8.81159 9.42341 9.64534 8.58734C10.4791 7.75126 11.4696 7.08791 12.5602 6.6353C13.6507 6.18269 14.8198 5.94971 16.0006 5.94971C17.1813 5.94971 18.3505 6.18269 19.441 6.6353C20.5316 7.08791 21.5221 7.75126 22.3558 8.58734C23.1896 9.42341 23.8502 10.4158 24.2997 11.5076C24.7493 12.5994 24.979 13.7692 24.9757 14.9499V14.9499C24.9757 19.4269 25.9124 21.5248 26.7373 22.9447C26.8262 23.0964 26.8735 23.2689 26.8744 23.4447C26.8754 23.6205 26.8299 23.7935 26.7427 23.9462C26.6554 24.0988 26.5295 24.2258 26.3775 24.3142C26.2256 24.4027 26.053 24.4495 25.8771 24.4499H6.12304C5.9472 24.4495 5.77458 24.4026 5.6226 24.3142C5.47062 24.2257 5.34466 24.0987 5.25743 23.946C5.1702 23.7934 5.12478 23.6204 5.12575 23.4445C5.12672 23.2687 5.17405 23.0962 5.26296 22.9445C6.08837 21.5245 7.02546 19.4266 7.02546 14.9499H7.02547Z" stroke="black" stroke-width="3" stroke-linecap="round" stroke-linejoin="round"/>
<path d="M23.4622 3.10217C25.6535 4.48556 27.42 6.44756 28.5666 8.77158" stroke="black" stroke-width="3" stroke-linecap="round" stroke-linejoin="round"/>
<path d="M3.43359 8.77158C4.58019 6.44756 6.34666 4.48556 8.538 3.10217" stroke="black" stroke-width="3" stroke-linecap="round" stroke-linejoin="round"/>
</svg>
