<svg width="32" height="33" viewBox="0 0 32 33" fill="none" xmlns="http://www.w3.org/2000/svg">
<path d="M6 5.94995L26 27.95" stroke="black" stroke-width="3" stroke-linecap="round" stroke-linejoin="round"/>
<path d="M12 24.95V25.95C12 27.0108 12.4214 28.0282 13.1716 28.7784C13.9217 29.5285 14.9391 29.95 16 29.95C17.0609 29.95 18.0783 29.5285 18.8284 28.7784C19.5786 28.0282 20 27.0108 20 25.95V24.95" stroke="black" stroke-width="3" stroke-linecap="round" stroke-linejoin="round"/>
<path d="M23.2727 24.9499H6.12292C5.94707 24.9495 5.77445 24.9026 5.62248 24.8142C5.4705 24.7257 5.34454 24.5987 5.25731 24.446C5.17008 24.2933 5.12465 24.1203 5.12563 23.9445C5.1266 23.7687 5.17393 23.5962 5.26284 23.4445C6.08825 22.0245 7.02534 19.4266 7.02534 14.9499V13.9499C7.02221 12.1208 7.57796 10.3344 8.61818 8.82996" stroke="black" stroke-width="3" stroke-linecap="round" stroke-linejoin="round"/>
<path d="M12.4956 5.66201C13.625 5.18168 14.8413 4.93936 16.0685 4.95018C21.0172 4.98697 24.9756 9.10034 24.9756 14.0629V14.9499C24.9577 16.6151 25.1159 18.2774 25.4476 19.9093" stroke="black" stroke-width="3" stroke-linecap="round" stroke-linejoin="round"/>
</svg>
