<svg width="32" height="33" viewBox="0 0 32 33" fill="none" xmlns="http://www.w3.org/2000/svg">
<path d="M15 4.94995L23 10.95L15 16.95V4.94995Z" stroke="black" stroke-width="3" stroke-linecap="round" stroke-linejoin="round"/>
<path d="M15 16.95L23 22.95L15 28.95V16.95Z" stroke="black" stroke-width="3" stroke-linecap="round" stroke-linejoin="round"/>
<path d="M7 10.95L15 16.95" stroke="black" stroke-width="3" stroke-linecap="round" stroke-linejoin="round"/>
<path d="M7 22.95L15 16.95" stroke="black" stroke-width="3" stroke-linecap="round" stroke-linejoin="round"/>
<path d="M6.5 18.95C7.60457 18.95 8.5 18.0545 8.5 16.95C8.5 15.8454 7.60457 14.95 6.5 14.95C5.39543 14.95 4.5 15.8454 4.5 16.95C4.5 18.0545 5.39543 18.95 6.5 18.95Z" fill="black"/>
<path d="M24.5 18.95C25.6046 18.95 26.5 18.0545 26.5 16.95C26.5 15.8454 25.6046 14.95 24.5 14.95C23.3954 14.95 22.5 15.8454 22.5 16.95C22.5 18.0545 23.3954 18.95 24.5 18.95Z" fill="black"/>
</svg>
