<svg width="32" height="33" viewBox="0 0 32 33" fill="none" xmlns="http://www.w3.org/2000/svg">
<path d="M22.501 11.45H4.50098C3.94869 11.45 3.50098 11.8977 3.50098 12.45V26.45C3.50098 27.0022 3.94869 27.45 4.50098 27.45H22.501C23.0533 27.45 23.501 27.0022 23.501 26.45V12.45C23.501 11.8977 23.0533 11.45 22.501 11.45Z" stroke="black" stroke-width="3" stroke-linecap="round" stroke-linejoin="round"/>
<path d="M8.50098 11.45V7.44995C8.50098 7.18473 8.60633 6.93038 8.79387 6.74284C8.98141 6.55531 9.23576 6.44995 9.50098 6.44995H27.501C27.7662 6.44995 28.0205 6.55531 28.2081 6.74284C28.3956 6.93038 28.501 7.18473 28.501 7.44995V21.4499C28.501 21.7152 28.3956 21.9695 28.2081 22.1571C28.0205 22.3446 27.7662 22.4499 27.501 22.4499H23.501" stroke="black" stroke-width="3" stroke-linecap="round" stroke-linejoin="round"/>
<path d="M3.5 16.45H23.5" stroke="black" stroke-width="3" stroke-linecap="round" stroke-linejoin="round"/>
</svg>
