<svg width="32" height="33" viewBox="0 0 32 33" fill="none" xmlns="http://www.w3.org/2000/svg">
<path d="M25 6.36414V26.9499C25 27.2151 24.8946 27.4695 24.7071 27.657C24.5195 27.8446 24.2652 27.9499 24 27.9499H3.41419C3.2164 27.9499 3.02306 27.8913 2.85862 27.7814C2.69417 27.6715 2.56599 27.5153 2.49031 27.3326C2.41462 27.1499 2.39481 26.9488 2.4334 26.7548C2.47198 26.5609 2.56723 26.3827 2.70708 26.2428L23.2929 5.65703C23.4327 5.51718 23.6109 5.42194 23.8049 5.38335C23.9989 5.34477 24.1999 5.36457 24.3827 5.44026C24.5654 5.51594 24.7216 5.64412 24.8314 5.80857C24.9413 5.97302 25 6.16635 25 6.36414Z" stroke="black" stroke-width="3" stroke-linecap="round" stroke-linejoin="round"/>
<path d="M20 8.94995V27.95" stroke="black" stroke-width="3" stroke-linecap="round" stroke-linejoin="round"/>
</svg>
