<svg width="32" height="33" viewBox="0 0 32 33" fill="none" xmlns="http://www.w3.org/2000/svg">
<path d="M25.0001 6.36414V26.9499C25.0001 27.2151 24.8947 27.4695 24.7072 27.657C24.5197 27.8446 24.2653 27.9499 24.0001 27.9499H3.41431C3.21653 27.9499 3.02319 27.8913 2.85874 27.7814C2.69429 27.6715 2.56612 27.5153 2.49043 27.3326C2.41474 27.1499 2.39494 26.9488 2.43352 26.7548C2.47211 26.5609 2.56735 26.3827 2.7072 26.2428L23.293 5.65703C23.4328 5.51718 23.611 5.42194 23.805 5.38335C23.999 5.34477 24.2001 5.36457 24.3828 5.44026C24.5655 5.51594 24.7217 5.64412 24.8316 5.80857C24.9414 5.97302 25.0001 6.16635 25.0001 6.36414Z" stroke="black" stroke-width="3" stroke-linecap="round" stroke-linejoin="round"/>
<path d="M20 8.94995V27.95" stroke="black" stroke-width="3" stroke-linecap="round" stroke-linejoin="round"/>
<path d="M15 13.95V27.95" stroke="black" stroke-width="3" stroke-linecap="round" stroke-linejoin="round"/>
<path d="M10 18.95V27.95" stroke="black" stroke-width="3" stroke-linecap="round" stroke-linejoin="round"/>
</svg>
