<svg width="32" height="33" viewBox="0 0 32 33" fill="none" xmlns="http://www.w3.org/2000/svg">
<path d="M5.99927 5.95105L25.9993 27.951" stroke="black" stroke-width="3" stroke-linecap="round" stroke-linejoin="round"/>
<path d="M25.9993 27.951L3.41419 27.95C3.2164 27.95 3.02306 27.8913 2.85862 27.7814C2.69417 27.6716 2.56599 27.5154 2.49031 27.3327C2.41462 27.1499 2.39481 26.9489 2.4334 26.7549C2.47198 26.5609 2.56723 26.3827 2.70708 26.2429L14.0944 14.8556" stroke="black" stroke-width="3" stroke-linecap="round" stroke-linejoin="round"/>
<path d="M17.6339 11.316L23.2929 5.65703C23.4327 5.51718 23.6109 5.42194 23.8049 5.38335C23.9989 5.34477 24.1999 5.36457 24.3826 5.44026C24.5654 5.51594 24.7216 5.64412 24.8314 5.80857C24.9413 5.97302 25 6.16635 25 6.36414V19.4186" stroke="black" stroke-width="3" stroke-linecap="round" stroke-linejoin="round"/>
</svg>
