<svg width="32" height="33" viewBox="0 0 32 33" fill="none" xmlns="http://www.w3.org/2000/svg">
<path d="M10 16.95C10 14.9721 10.5865 13.0387 11.6853 11.3943C12.7841 9.74976 14.3459 8.46804 16.1732 7.71116C18.0005 6.95428 20.0111 6.75625 21.9509 7.1421C23.8907 7.52796 25.6726 8.48036 27.0711 9.87889C28.4696 11.2774 29.422 13.0592 29.8079 14.9991C30.1937 16.9389 29.9957 18.9495 29.2388 20.7768C28.4819 22.6041 27.2002 24.1658 25.5557 25.2647C23.9112 26.3635 21.9778 26.95 20 26.95H9.00003C8.00732 26.949 7.02618 26.7369 6.12172 26.3277C5.21725 25.9186 4.41016 25.3217 3.754 24.5768C3.09785 23.8319 2.60764 22.9559 2.31591 22.007C2.02419 21.0582 1.93762 20.0581 2.06196 19.0732C2.1863 18.0883 2.51869 17.1411 3.03708 16.2945C3.55547 15.4479 4.248 14.7213 5.06871 14.1628C5.88941 13.6043 6.81952 13.2268 7.79729 13.0553C8.77506 12.8837 9.77814 12.9221 10.7399 13.1679" stroke="black" stroke-width="3" stroke-linecap="round" stroke-linejoin="round"/>
<path d="M24 15.45L18 21.45L15 18.45" stroke="black" stroke-width="3" stroke-linecap="round" stroke-linejoin="round"/>
</svg>
