<svg width="32" height="33" viewBox="0 0 32 33" fill="none" xmlns="http://www.w3.org/2000/svg">
<path d="M14.7573 22.7073L18.9999 26.9499L23.2426 22.7073" stroke="black" stroke-width="3" stroke-linecap="round" stroke-linejoin="round"/>
<path d="M19 16.95V26.95" stroke="black" stroke-width="3" stroke-linecap="round" stroke-linejoin="round"/>
<path d="M12 26.9499H9.00003C8.00732 26.949 7.02618 26.7369 6.12172 26.3277C5.21725 25.9186 4.41016 25.3217 3.754 24.5768C3.09785 23.8319 2.60764 22.9559 2.31591 22.007C2.02419 21.0582 1.93762 20.0581 2.06196 19.0732C2.1863 18.0883 2.51869 17.1411 3.03708 16.2945C3.55547 15.4479 4.248 14.7213 5.06871 14.1628C5.88941 13.6043 6.81952 13.2268 7.79729 13.0552C8.77506 12.8837 9.77814 12.9221 10.7399 13.1679" stroke="black" stroke-width="3" stroke-linecap="round" stroke-linejoin="round"/>
<path d="M10 16.95C10.0002 15.3655 10.3768 13.8038 11.0989 12.3934C11.821 10.9831 12.868 9.76452 14.1534 8.83815C15.4388 7.91178 16.926 7.30412 18.4923 7.06524C20.0587 6.82635 21.6594 6.96309 23.1625 7.46417C24.6656 7.96526 26.0282 8.81635 27.1379 9.94731C28.2476 11.0783 29.0726 12.4567 29.5451 13.9691C30.0175 15.4815 30.1239 17.0845 29.8553 18.646C29.5867 20.2076 28.9509 21.6829 28.0003 22.9505" stroke="black" stroke-width="3" stroke-linecap="round" stroke-linejoin="round"/>
</svg>
