<svg width="32" height="33" viewBox="0 0 32 33" fill="none" xmlns="http://www.w3.org/2000/svg">
<path d="M12 26.948H9.00003C8.00733 26.947 7.02618 26.7349 6.12172 26.3258C5.21725 25.9166 4.41016 25.3198 3.754 24.5748C3.09785 23.8299 2.60764 22.9539 2.31591 22.0051C2.02419 21.0562 1.93762 20.0561 2.06196 19.0712C2.1863 18.0864 2.51869 17.1392 3.03708 16.2926C3.55548 15.446 4.24801 14.7193 5.06871 14.1608C5.88942 13.6024 6.81952 13.2248 7.79729 13.0533C8.77507 12.8818 9.77814 12.9202 10.7399 13.1659" stroke="black" stroke-width="3" stroke-linecap="round" stroke-linejoin="round"/>
<path d="M10 16.948C10.0002 15.3635 10.3768 13.8018 11.0989 12.3915C11.821 10.9811 12.868 9.76257 14.1534 8.8362C15.4388 7.90983 16.926 7.30217 18.4923 7.06328C20.0587 6.8244 21.6594 6.96113 23.1625 7.46222C24.6656 7.9633 26.0282 8.8144 27.1379 9.94536C28.2476 11.0763 29.0726 12.4548 29.5451 13.9672C30.0175 15.4796 30.1239 17.0826 29.8553 18.6441C29.5867 20.2056 28.9509 21.681 28.0003 22.9486" stroke="black" stroke-width="3" stroke-linecap="round" stroke-linejoin="round"/>
<path d="M14.7573 21.1907L18.9999 16.948L23.2426 21.1907" stroke="black" stroke-width="3" stroke-linecap="round" stroke-linejoin="round"/>
<path d="M19 26.948V16.948" stroke="black" stroke-width="3" stroke-linecap="round" stroke-linejoin="round"/>
</svg>
