<svg width="32" height="33" viewBox="0 0 32 33" fill="none" xmlns="http://www.w3.org/2000/svg">
<path d="M6 5.94995L26 27.95" stroke="black" stroke-width="3" stroke-linecap="round" stroke-linejoin="round"/>
<path d="M24.2368 26.0107C22.9107 26.6313 21.4642 26.952 20 26.9499H9.00003C8.00732 26.949 7.02618 26.7369 6.12172 26.3277C5.21725 25.9186 4.41016 25.3217 3.754 24.5768C3.09785 23.8319 2.60764 22.9559 2.31591 22.007C2.02419 21.0582 1.93762 20.0581 2.06196 19.0732C2.1863 18.0883 2.51869 17.1411 3.03708 16.2945C3.55547 15.4479 4.248 14.7213 5.06871 14.1628C5.88941 13.6043 6.81952 13.2268 7.79729 13.0552C8.77506 12.8837 9.77814 12.9221 10.7399 13.1679" stroke="black" stroke-width="3" stroke-linecap="round" stroke-linejoin="round"/>
<path d="M10 16.95C9.99719 15.1638 10.4751 13.4097 11.3835 11.8718" stroke="black" stroke-width="3" stroke-linecap="round" stroke-linejoin="round"/>
<path d="M14.9236 8.33243C16.9038 7.1664 19.2251 6.71782 21.4971 7.06215C23.7691 7.40647 25.8533 8.52269 27.3991 10.2231C28.9448 11.9235 29.8579 14.1043 29.9847 16.3987C30.1115 18.6932 29.4444 20.9614 28.0954 22.8218" stroke="black" stroke-width="3" stroke-linecap="round" stroke-linejoin="round"/>
</svg>
