<svg width="32" height="33" viewBox="0 0 32 33" fill="none" xmlns="http://www.w3.org/2000/svg">
<path d="M22.5 6.94995H22.5C23.4283 6.94995 24.3185 7.3187 24.9749 7.97508C25.6313 8.63145 26 9.52169 26 10.4499V10.45C26 11.3782 25.6313 12.2684 24.9749 12.9248C24.3185 13.5812 23.4283 13.95 22.5 13.95H19V10.45C19 9.52169 19.3687 8.63145 20.0251 7.97508C20.6815 7.3187 21.5717 6.94995 22.5 6.94995V6.94995Z" stroke="black" stroke-width="3" stroke-linecap="round" stroke-linejoin="round"/>
<path d="M13 13.95H9.5C8.57174 13.95 7.6815 13.5812 7.02513 12.9248C6.36875 12.2684 6 11.3782 6 10.45V10.4499C6 9.52169 6.36875 8.63145 7.02512 7.97507C7.6815 7.3187 8.57174 6.94995 9.49999 6.94995H9.5C10.4283 6.94995 11.3185 7.3187 11.9749 7.97508C12.6313 8.63145 13 9.52169 13 10.45V13.95Z" stroke="black" stroke-width="3" stroke-linecap="round" stroke-linejoin="round"/>
<path d="M19 19.95H22.5C23.4283 19.95 24.3185 20.3187 24.9749 20.9751C25.6313 21.6315 26 22.5217 26 23.45V23.45C26 24.3782 25.6313 25.2685 24.9749 25.9248C24.3185 26.5812 23.4283 26.95 22.5 26.95H22.5C21.5717 26.95 20.6815 26.5812 20.0251 25.9248C19.3687 25.2684 19 24.3782 19 23.45V19.95Z" stroke="black" stroke-width="3" stroke-linecap="round" stroke-linejoin="round"/>
<path d="M9.5 26.95H9.49999C8.57174 26.95 7.6815 26.5812 7.02512 25.9248C6.36875 25.2685 6 24.3782 6 23.45V23.45C6 22.5217 6.36875 21.6315 7.02513 20.9751C7.6815 20.3187 8.57174 19.95 9.5 19.95H13V23.45C13 24.3782 12.6313 25.2684 11.9749 25.9248C11.3185 26.5812 10.4283 26.95 9.5 26.95V26.95Z" stroke="black" stroke-width="3" stroke-linecap="round" stroke-linejoin="round"/>
<path d="M19 13.95H13V19.95H19V13.95Z" stroke="black" stroke-width="3" stroke-linecap="round" stroke-linejoin="round"/>
</svg>
