<svg width="22" height="22" viewBox="0 0 22 22" fill="none" xmlns="http://www.w3.org/2000/svg">
<path d="M2.0625 15.8125V13.847C2.0625 8.90742 6.02883 4.82965 10.9684 4.81256C12.1447 4.8084 13.3103 5.0365 14.3983 5.48378C15.4863 5.93107 16.4753 6.58873 17.3086 7.41907C18.1419 8.2494 18.803 9.23606 19.2541 10.3225C19.7053 11.4089 19.9375 12.5737 19.9375 13.75V15.8125C19.9375 15.9948 19.8651 16.1697 19.7361 16.2986C19.6072 16.4276 19.4323 16.5 19.25 16.5H2.75C2.56766 16.5 2.3928 16.4276 2.26386 16.2986C2.13493 16.1697 2.0625 15.9948 2.0625 15.8125Z" stroke="#676879" stroke-width="2.0625" stroke-linecap="round" stroke-linejoin="round"/>
<path d="M11 4.8125V7.5625" stroke="#676879" stroke-width="2.0625" stroke-linecap="round" stroke-linejoin="round"/>
<path d="M2.36694 11.4368L5.02324 12.1486" stroke="#676879" stroke-width="2.0625" stroke-linecap="round" stroke-linejoin="round"/>
<path d="M19.6331 11.4368L16.9768 12.1486" stroke="#676879" stroke-width="2.0625" stroke-linecap="round" stroke-linejoin="round"/>
<path d="M8.88989 16.5L14.7668 8.84113" stroke="#676879" stroke-width="2.0625" stroke-linecap="round" stroke-linejoin="round"/>
</svg>
