<svg width="32" height="33" viewBox="0 0 32 33" fill="none" xmlns="http://www.w3.org/2000/svg">
<path d="M24 27.95V5.94995C24 4.84538 23.1046 3.94995 22 3.94995L10 3.94995C8.89543 3.94995 8 4.84538 8 5.94995L8 27.95C8 29.0545 8.89543 29.95 10 29.95H22C23.1046 29.95 24 29.0545 24 27.95Z" stroke="black" stroke-width="3" stroke-linecap="round" stroke-linejoin="round"/>
<path d="M16 11.45C17.1046 11.45 18 10.5545 18 9.44995C18 8.34538 17.1046 7.44995 16 7.44995C14.8954 7.44995 14 8.34538 14 9.44995C14 10.5545 14.8954 11.45 16 11.45Z" fill="black"/>
</svg>
