<svg width="32" height="33" viewBox="0 0 32 33" fill="none" xmlns="http://www.w3.org/2000/svg">
<path d="M11.5 10.45C12.6046 10.45 13.5 9.55452 13.5 8.44995C13.5 7.34538 12.6046 6.44995 11.5 6.44995C10.3954 6.44995 9.5 7.34538 9.5 8.44995C9.5 9.55452 10.3954 10.45 11.5 10.45Z" fill="black"/>
<path d="M20.5 10.45C21.6046 10.45 22.5 9.55452 22.5 8.44995C22.5 7.34538 21.6046 6.44995 20.5 6.44995C19.3954 6.44995 18.5 7.34538 18.5 8.44995C18.5 9.55452 19.3954 10.45 20.5 10.45Z" fill="black"/>
<path d="M11.5 18.95C12.6046 18.95 13.5 18.0545 13.5 16.95C13.5 15.8454 12.6046 14.95 11.5 14.95C10.3954 14.95 9.5 15.8454 9.5 16.95C9.5 18.0545 10.3954 18.95 11.5 18.95Z" fill="black"/>
<path d="M20.5 18.95C21.6046 18.95 22.5 18.0545 22.5 16.95C22.5 15.8454 21.6046 14.95 20.5 14.95C19.3954 14.95 18.5 15.8454 18.5 16.95C18.5 18.0545 19.3954 18.95 20.5 18.95Z" fill="black"/>
<path d="M11.5 27.45C12.6046 27.45 13.5 26.5545 13.5 25.45C13.5 24.3454 12.6046 23.45 11.5 23.45C10.3954 23.45 9.5 24.3454 9.5 25.45C9.5 26.5545 10.3954 27.45 11.5 27.45Z" fill="black"/>
<path d="M20.5 27.45C21.6046 27.45 22.5 26.5545 22.5 25.45C22.5 24.3454 21.6046 23.45 20.5 23.45C19.3954 23.45 18.5 24.3454 18.5 25.45C18.5 26.5545 19.3954 27.45 20.5 27.45Z" fill="black"/>
</svg>
