<svg width="32" height="33" viewBox="0 0 32 33" fill="none" xmlns="http://www.w3.org/2000/svg">
<path d="M16 19.45C17.3807 19.45 18.5 18.3307 18.5 16.95C18.5 15.5692 17.3807 14.45 16 14.45C14.6193 14.45 13.5 15.5692 13.5 16.95C13.5 18.3307 14.6193 19.45 16 19.45Z" stroke="black" stroke-width="3" stroke-linecap="round" stroke-linejoin="round"/>
<path d="M26 19.45C27.3807 19.45 28.5 18.3307 28.5 16.95C28.5 15.5692 27.3807 14.45 26 14.45C24.6193 14.45 23.5 15.5692 23.5 16.95C23.5 18.3307 24.6193 19.45 26 19.45Z" stroke="black" stroke-width="3" stroke-linecap="round" stroke-linejoin="round"/>
<path d="M6 19.45C7.38071 19.45 8.5 18.3307 8.5 16.95C8.5 15.5692 7.38071 14.45 6 14.45C4.61929 14.45 3.5 15.5692 3.5 16.95C3.5 18.3307 4.61929 19.45 6 19.45Z" stroke="black" stroke-width="3" stroke-linecap="round" stroke-linejoin="round"/>
</svg>
