<svg width="32" height="33" viewBox="0 0 32 33" fill="none" xmlns="http://www.w3.org/2000/svg">
<path d="M16 28.95C22.6274 28.95 28 23.5774 28 16.95C28 10.3225 22.6274 4.94995 16 4.94995C9.37258 4.94995 4 10.3225 4 16.95C4 23.5774 9.37258 28.95 16 28.95Z" stroke="black" stroke-width="3" stroke-linecap="round" stroke-linejoin="round"/>
<path d="M16 15.45C17.1046 15.45 18 14.5545 18 13.45C18 12.3454 17.1046 11.45 16 11.45C14.8954 11.45 14 12.3454 14 13.45C14 14.5545 14.8954 15.45 16 15.45Z" fill="black"/>
<path d="M16 22.45C17.1046 22.45 18 21.5545 18 20.45C18 19.3454 17.1046 18.45 16 18.45C14.8954 18.45 14 19.3454 14 20.45C14 21.5545 14.8954 22.45 16 22.45Z" fill="black"/>
</svg>
