<svg width="32" height="33" viewBox="0 0 32 33" fill="none" xmlns="http://www.w3.org/2000/svg">
<path d="M16 19.45C17.3807 19.45 18.5 18.3307 18.5 16.95C18.5 15.5692 17.3807 14.45 16 14.45C14.6193 14.45 13.5 15.5692 13.5 16.95C13.5 18.3307 14.6193 19.45 16 19.45Z" stroke="black" stroke-width="3" stroke-linecap="round" stroke-linejoin="round"/>
<path d="M16 9.44995C17.3807 9.44995 18.5 8.33066 18.5 6.94995C18.5 5.56924 17.3807 4.44995 16 4.44995C14.6193 4.44995 13.5 5.56924 13.5 6.94995C13.5 8.33066 14.6193 9.44995 16 9.44995Z" stroke="black" stroke-width="3" stroke-linecap="round" stroke-linejoin="round"/>
<path d="M16 29.45C17.3807 29.45 18.5 28.3307 18.5 26.95C18.5 25.5692 17.3807 24.45 16 24.45C14.6193 24.45 13.5 25.5692 13.5 26.95C13.5 28.3307 14.6193 29.45 16 29.45Z" stroke="black" stroke-width="3" stroke-linecap="round" stroke-linejoin="round"/>
</svg>
