<svg width="32" height="33" viewBox="0 0 32 33" fill="none" xmlns="http://www.w3.org/2000/svg">
<path d="M16 28.95C22.6274 28.95 28 23.5774 28 16.95C28 10.3225 22.6274 4.94995 16 4.94995C9.37258 4.94995 4 10.3225 4 16.95C4 23.5774 9.37258 28.95 16 28.95Z" stroke="black" stroke-width="3" stroke-linecap="round" stroke-linejoin="round"/>
<path d="M12.5 18.95C13.6046 18.95 14.5 18.0545 14.5 16.95C14.5 15.8454 13.6046 14.95 12.5 14.95C11.3954 14.95 10.5 15.8454 10.5 16.95C10.5 18.0545 11.3954 18.95 12.5 18.95Z" fill="black"/>
<path d="M19.5 18.95C20.6046 18.95 21.5 18.0545 21.5 16.95C21.5 15.8454 20.6046 14.95 19.5 14.95C18.3954 14.95 17.5 15.8454 17.5 16.95C17.5 18.0545 18.3954 18.95 19.5 18.95Z" fill="black"/>
</svg>
