<svg width="32" height="33" viewBox="0 0 32 33" fill="none" xmlns="http://www.w3.org/2000/svg">
<path d="M16 18.95C17.1046 18.95 18 18.0545 18 16.95C18 15.8454 17.1046 14.95 16 14.95C14.8954 14.95 14 15.8454 14 16.95C14 18.0545 14.8954 18.95 16 18.95Z" fill="black"/>
<path d="M8 18.95C9.10457 18.95 10 18.0545 10 16.95C10 15.8454 9.10457 14.95 8 14.95C6.89543 14.95 6 15.8454 6 16.95C6 18.0545 6.89543 18.95 8 18.95Z" fill="black"/>
<path d="M24 18.95C25.1046 18.95 26 18.0545 26 16.95C26 15.8454 25.1046 14.95 24 14.95C22.8954 14.95 22 15.8454 22 16.95C22 18.0545 22.8954 18.95 24 18.95Z" fill="black"/>
</svg>
