<svg width="33" height="32" viewBox="0 0 33 32" fill="none" xmlns="http://www.w3.org/2000/svg">
<path d="M16.6957 10C17.8002 10 18.6957 9.10457 18.6957 8C18.6957 6.89543 17.8002 6 16.6957 6C15.5911 6 14.6957 6.89543 14.6957 8C14.6957 9.10457 15.5911 10 16.6957 10Z" fill="#323338"/>
<path d="M16.6957 18C17.8002 18 18.6957 17.1046 18.6957 16C18.6957 14.8954 17.8002 14 16.6957 14C15.5911 14 14.6957 14.8954 14.6957 16C14.6957 17.1046 15.5911 18 16.6957 18Z" fill="#323338"/>
<path d="M16.6957 26C17.8002 26 18.6957 25.1046 18.6957 24C18.6957 22.8954 17.8002 22 16.6957 22C15.5911 22 14.6957 22.8954 14.6957 24C14.6957 25.1046 15.5911 26 16.6957 26Z" fill="#323338"/>
</svg>
