<svg width="32" height="33" viewBox="0 0 32 33" fill="none" xmlns="http://www.w3.org/2000/svg">
<path d="M7.5 10.45C8.60457 10.45 9.5 9.55452 9.5 8.44995C9.5 7.34538 8.60457 6.44995 7.5 6.44995C6.39543 6.44995 5.5 7.34538 5.5 8.44995C5.5 9.55452 6.39543 10.45 7.5 10.45Z" fill="black"/>
<path d="M16 10.45C17.1046 10.45 18 9.55452 18 8.44995C18 7.34538 17.1046 6.44995 16 6.44995C14.8954 6.44995 14 7.34538 14 8.44995C14 9.55452 14.8954 10.45 16 10.45Z" fill="black"/>
<path d="M24.5 10.45C25.6046 10.45 26.5 9.55452 26.5 8.44995C26.5 7.34538 25.6046 6.44995 24.5 6.44995C23.3954 6.44995 22.5 7.34538 22.5 8.44995C22.5 9.55452 23.3954 10.45 24.5 10.45Z" fill="black"/>
<path d="M7.5 18.95C8.60457 18.95 9.5 18.0545 9.5 16.95C9.5 15.8454 8.60457 14.95 7.5 14.95C6.39543 14.95 5.5 15.8454 5.5 16.95C5.5 18.0545 6.39543 18.95 7.5 18.95Z" fill="black"/>
<path d="M16 18.95C17.1046 18.95 18 18.0545 18 16.95C18 15.8454 17.1046 14.95 16 14.95C14.8954 14.95 14 15.8454 14 16.95C14 18.0545 14.8954 18.95 16 18.95Z" fill="black"/>
<path d="M24.5 18.95C25.6046 18.95 26.5 18.0545 26.5 16.95C26.5 15.8454 25.6046 14.95 24.5 14.95C23.3954 14.95 22.5 15.8454 22.5 16.95C22.5 18.0545 23.3954 18.95 24.5 18.95Z" fill="black"/>
<path d="M7.5 27.45C8.60457 27.45 9.5 26.5545 9.5 25.45C9.5 24.3454 8.60457 23.45 7.5 23.45C6.39543 23.45 5.5 24.3454 5.5 25.45C5.5 26.5545 6.39543 27.45 7.5 27.45Z" fill="black"/>
<path d="M16 27.45C17.1046 27.45 18 26.5545 18 25.45C18 24.3454 17.1046 23.45 16 23.45C14.8954 23.45 14 24.3454 14 25.45C14 26.5545 14.8954 27.45 16 27.45Z" fill="black"/>
<path d="M24.5 27.45C25.6046 27.45 26.5 26.5545 26.5 25.45C26.5 24.3454 25.6046 23.45 24.5 23.45C23.3954 23.45 22.5 24.3454 22.5 25.45C22.5 26.5545 23.3954 27.45 24.5 27.45Z" fill="black"/>
</svg>
