<svg width="32" height="33" viewBox="0 0 32 33" fill="none" xmlns="http://www.w3.org/2000/svg">
<path d="M7.5 14.45C8.60457 14.45 9.5 13.5545 9.5 12.45C9.5 11.3454 8.60457 10.45 7.5 10.45C6.39543 10.45 5.5 11.3454 5.5 12.45C5.5 13.5545 6.39543 14.45 7.5 14.45Z" fill="black"/>
<path d="M16 14.45C17.1046 14.45 18 13.5545 18 12.45C18 11.3454 17.1046 10.45 16 10.45C14.8954 10.45 14 11.3454 14 12.45C14 13.5545 14.8954 14.45 16 14.45Z" fill="black"/>
<path d="M24.5 14.45C25.6046 14.45 26.5 13.5545 26.5 12.45C26.5 11.3454 25.6046 10.45 24.5 10.45C23.3954 10.45 22.5 11.3454 22.5 12.45C22.5 13.5545 23.3954 14.45 24.5 14.45Z" fill="black"/>
<path d="M7.5 23.45C8.60457 23.45 9.5 22.5545 9.5 21.45C9.5 20.3454 8.60457 19.45 7.5 19.45C6.39543 19.45 5.5 20.3454 5.5 21.45C5.5 22.5545 6.39543 23.45 7.5 23.45Z" fill="black"/>
<path d="M16 23.45C17.1046 23.45 18 22.5545 18 21.45C18 20.3454 17.1046 19.45 16 19.45C14.8954 19.45 14 20.3454 14 21.45C14 22.5545 14.8954 23.45 16 23.45Z" fill="black"/>
<path d="M24.5 23.45C25.6046 23.45 26.5 22.5545 26.5 21.45C26.5 20.3454 25.6046 19.45 24.5 19.45C23.3954 19.45 22.5 20.3454 22.5 21.45C22.5 22.5545 23.3954 23.45 24.5 23.45Z" fill="black"/>
</svg>
