<svg width="32" height="33" viewBox="0 0 32 33" fill="none" xmlns="http://www.w3.org/2000/svg">
<path d="M9.00024 3.94995H23.0002C23.2655 3.94995 23.5198 4.05531 23.7074 4.24284C23.8949 4.43038 24.0002 4.68473 24.0002 4.94995V10.6166C24.0002 10.833 23.9301 11.0435 23.8002 11.2166L21.2002 14.6833C21.0704 14.8564 21.0002 15.0669 21.0002 15.2833V28.95C21.0002 29.2152 20.8949 29.4695 20.7074 29.6571C20.5198 29.8446 20.2655 29.95 20.0002 29.95H12.0002C11.735 29.95 11.4807 29.8446 11.2931 29.6571C11.1056 29.4695 11.0002 29.2152 11.0002 28.95V15.2833C11.0002 15.0669 10.9301 14.8564 10.8002 14.6833L8.20024 11.2166C8.07042 11.0435 8.00024 10.833 8.00024 10.6166V4.94995C8.00024 4.68473 8.1056 4.43038 8.29314 4.24284C8.48067 4.05531 8.73503 3.94995 9.00024 3.94995V3.94995Z" stroke="black" stroke-width="3" stroke-linecap="round" stroke-linejoin="round"/>
<path d="M16.0002 15.95V19.95" stroke="black" stroke-width="3" stroke-linecap="round" stroke-linejoin="round"/>
<path d="M8.00024 8.94995H24.0002" stroke="black" stroke-width="3" stroke-linecap="round" stroke-linejoin="round"/>
</svg>
