<svg width="32" height="33" viewBox="0 0 32 33" fill="none" xmlns="http://www.w3.org/2000/svg">
<path d="M3 23.95V21.0911C3 13.9062 8.7692 7.97489 15.954 7.95003C17.6651 7.94398 19.3605 8.27577 20.943 8.92636C22.5255 9.57696 23.9641 10.5336 25.1761 11.7413C26.3882 12.9491 27.3498 14.3842 28.006 15.9644C28.6622 17.5447 29 19.2389 29 20.95V23.95C29 24.2152 28.8946 24.4695 28.7071 24.6571C28.5196 24.8446 28.2652 24.9499 28 24.9499H4C3.73478 24.9499 3.48043 24.8446 3.29289 24.6571C3.10536 24.4695 3 24.2152 3 23.95Z" stroke="black" stroke-width="3" stroke-linecap="round" stroke-linejoin="round"/>
<path d="M16 7.94995V11.95" stroke="black" stroke-width="3" stroke-linecap="round" stroke-linejoin="round"/>
<path d="M3.44287 17.5853L7.30657 18.6206" stroke="black" stroke-width="3" stroke-linecap="round" stroke-linejoin="round"/>
<path d="M28.5571 17.5853L24.6934 18.6206" stroke="black" stroke-width="3" stroke-linecap="round" stroke-linejoin="round"/>
<path d="M12.9307 24.95L21.4788 13.8098" stroke="black" stroke-width="3" stroke-linecap="round" stroke-linejoin="round"/>
</svg>
