<svg width="23" height="23" viewBox="0 0 23 23" fill="none" xmlns="http://www.w3.org/2000/svg">
<path d="M11.1951 15.0434C13.3205 15.0434 15.0434 13.3205 15.0434 11.1951C15.0434 9.06972 13.3205 7.34677 11.1951 7.34677C9.06975 7.34677 7.3468 9.06972 7.3468 11.1951C7.3468 13.3205 9.06975 15.0434 11.1951 15.0434Z" stroke="#676879" stroke-width="2.09909" stroke-linecap="round" stroke-linejoin="round"/>
<path d="M17.2659 7.05373C17.4728 7.35758 17.6567 7.67654 17.8158 8.00794L20.0851 9.26769C20.3615 10.5372 20.3625 11.8512 20.0879 13.1211L17.8173 14.3815C17.6577 14.7126 17.4733 15.0313 17.2659 15.3348L17.3096 17.93C16.3484 18.8041 15.2109 19.4619 13.9739 19.8591L11.747 18.5229C11.3804 18.5502 11.0122 18.5499 10.6457 18.5221L8.42005 19.8575C7.18244 19.4621 6.04401 18.8059 5.08155 17.9332L5.12525 15.3366C4.91831 15.0328 4.73449 14.7138 4.57534 14.3824L2.30603 13.1226C2.02963 11.8532 2.02868 10.5392 2.30325 9.26929L4.57382 8.00884C4.73349 7.6777 4.91781 7.35902 5.12524 7.0555L5.08156 4.46035C6.04276 3.58623 7.18024 2.92841 8.41728 2.53125L10.6441 3.8674C11.0108 3.8401 11.3789 3.8404 11.7455 3.86827L13.9711 2.53286C15.2087 2.92823 16.3471 3.5844 17.3096 4.45713L17.2659 7.05373Z" stroke="#676879" stroke-width="2.09909" stroke-linecap="round" stroke-linejoin="round"/>
</svg>
