<svg width="32" height="33" viewBox="0 0 32 33" fill="none" xmlns="http://www.w3.org/2000/svg">
<path d="M16 22.45C19.0376 22.45 21.5 19.9875 21.5 16.95C21.5 13.9124 19.0376 11.45 16 11.45C12.9624 11.45 10.5 13.9124 10.5 16.95C10.5 19.9875 12.9624 22.45 16 22.45Z" stroke="black" stroke-width="3" stroke-linecap="round" stroke-linejoin="round"/>
<path d="M22.958 9.08577C23.2782 9.36931 23.581 9.67204 23.8645 9.99228L27.2798 10.48C27.8336 11.4444 28.2607 12.4763 28.5503 13.5501L26.481 16.3091C26.481 16.3091 26.507 17.164 26.481 17.5909L28.5512 20.3507C28.2608 21.4243 27.8331 22.4559 27.2786 23.42L23.8645 23.9076C23.8645 23.9076 23.2784 24.5306 22.9582 24.8141L22.4705 28.2294C21.506 28.7832 20.4741 29.2102 19.4004 29.4998L16.6416 27.4306C16.2146 27.4566 15.7865 27.4566 15.3596 27.4306L12.5997 29.5007C11.5261 29.2104 10.4945 28.7827 9.53048 28.2282L9.04288 24.8143C8.72264 24.5307 8.4199 24.228 8.13636 23.9078L4.72106 23.4201C4.16722 22.4556 3.7402 21.4237 3.45061 20.35L5.51991 17.591C5.51991 17.591 5.49388 16.7361 5.51983 16.3091L3.44971 13.5493C3.74003 12.4757 4.16775 11.4441 4.72225 10.4801L8.13618 9.99247C8.41973 9.67223 8.72245 9.36949 9.0427 9.08595L9.53039 5.67065C10.4948 5.11681 11.5267 4.68979 12.6005 4.40019L15.3593 6.46943C15.7862 6.44347 16.2144 6.44347 16.6413 6.46942L19.4011 4.39929C20.4747 4.68962 21.5063 5.11733 22.4704 5.67183L22.958 9.08577Z" stroke="black" stroke-width="3" stroke-linecap="round" stroke-linejoin="round"/>
</svg>
