<svg width="22" height="22" viewBox="0 0 22 22" fill="none" xmlns="http://www.w3.org/2000/svg">
<path d="M11 18.5625C12.3289 18.5625 13.4062 17.4852 13.4062 16.1562C13.4062 14.8273 12.3289 13.75 11 13.75C9.67106 13.75 8.59375 14.8273 8.59375 16.1562C8.59375 17.4852 9.67106 18.5625 11 18.5625Z" stroke="#676879" stroke-width="2.0625" stroke-linecap="round" stroke-linejoin="round"/>
<path d="M16.1562 8.24966C17.4852 8.24966 18.5625 7.17235 18.5625 5.84341C18.5625 4.51448 17.4852 3.43716 16.1562 3.43716C14.8273 3.43716 13.75 4.51448 13.75 5.84341C13.75 7.17235 14.8273 8.24966 16.1562 8.24966Z" stroke="#676879" stroke-width="2.0625" stroke-linecap="round" stroke-linejoin="round"/>
<path d="M5.84375 8.24966C7.17269 8.24966 8.25 7.17235 8.25 5.84341C8.25 4.51448 7.17269 3.43716 5.84375 3.43716C4.51481 3.43716 3.4375 4.51448 3.4375 5.84341C3.4375 7.17235 4.51481 8.24966 5.84375 8.24966Z" stroke="#676879" stroke-width="2.0625" stroke-linecap="round" stroke-linejoin="round"/>
<path d="M5.84375 8.24966V8.93734C5.84375 9.20819 5.8971 9.47639 6.00075 9.72663C6.10441 9.97687 6.25633 10.2042 6.44786 10.3958C6.63938 10.5873 6.86676 10.7392 7.11699 10.8428C7.36723 10.9465 7.63544 10.9998 7.90629 10.9998L14.0938 10.9997C14.6408 10.9997 15.1654 10.7824 15.5522 10.3956C15.939 10.0088 16.1563 9.48421 16.1562 8.93721V8.24966" stroke="#676879" stroke-width="2.0625" stroke-linecap="round" stroke-linejoin="round"/>
<path d="M11.0002 11L11 13.75" stroke="#676879" stroke-width="2.0625" stroke-linecap="round" stroke-linejoin="round"/>
</svg>
