<svg width="23" height="23" viewBox="0 0 23 23" fill="none" xmlns="http://www.w3.org/2000/svg">
<path d="M11.1952 19.5915C15.8323 19.5915 19.5915 15.8323 19.5915 11.1951C19.5915 6.55798 15.8323 2.79881 11.1952 2.79881C6.558 2.79881 2.79883 6.55798 2.79883 11.1951C2.79883 15.8323 6.558 19.5915 11.1952 19.5915Z" stroke="#676879" stroke-width="2.09909" stroke-linecap="round" stroke-linejoin="round"/>
<path d="M18.7311 14.9012L13.9832 11.9809C13.8999 11.9297 13.8069 11.8966 13.7101 11.8835L11.7143 11.6145C11.5644 11.5943 11.4121 11.6232 11.28 11.6968C11.1479 11.7705 11.0433 11.885 10.9817 12.0231L9.78362 14.7115C9.7279 14.8365 9.71007 14.9752 9.73235 15.1102C9.75463 15.2453 9.81603 15.3708 9.90895 15.4713L11.5532 17.2498C11.6278 17.3305 11.6823 17.4275 11.7124 17.5331C11.7425 17.6387 11.7473 17.7499 11.7264 17.8577L11.3915 19.5891" stroke="#676879" stroke-width="2.09909" stroke-linecap="round" stroke-linejoin="round"/>
<path d="M5.6808 4.86338L4.89852 6.71318C4.82877 6.87811 4.82491 7.06352 4.88774 7.23121L5.89276 9.91351C5.93391 10.0233 6.00202 10.1211 6.09082 10.1977C6.17962 10.2744 6.28626 10.3274 6.40094 10.3521L8.27524 10.7549C8.37925 10.7773 8.47678 10.8231 8.56044 10.8888C8.64409 10.9545 8.71166 11.0384 8.75801 11.1341L9.09086 11.8218C9.14814 11.9401 9.2376 12.0399 9.34898 12.1097C9.46037 12.1796 9.58918 12.2166 9.72065 12.2166H10.8955" stroke="#676879" stroke-width="2.09909" stroke-linecap="round" stroke-linejoin="round"/>
<path d="M13.3344 3.07417L14.1507 4.5364C14.2279 4.67463 14.2559 4.83494 14.2302 4.99115C14.2044 5.14736 14.1265 5.29023 14.0091 5.39642L11.6554 7.52503C11.6155 7.56115 11.5715 7.59255 11.5243 7.61858L10.4537 8.20986C10.3501 8.26705 10.2337 8.29705 10.1154 8.29705H8.2485C8.11083 8.29705 7.97621 8.33766 7.86151 8.41381C7.74681 8.48995 7.65713 8.59824 7.60368 8.72512L6.87537 10.4541" stroke="#676879" stroke-width="2.09909" stroke-linecap="round" stroke-linejoin="round"/>
</svg>
