<svg width="32" height="33" viewBox="0 0 32 33" fill="none" xmlns="http://www.w3.org/2000/svg">
<path d="M26 6.94995H6C5.44772 6.94995 5 7.39767 5 7.94995V25.95C5 26.5022 5.44772 26.95 6 26.95H26C26.5523 26.95 27 26.5022 27 25.95V7.94995C27 7.39767 26.5523 6.94995 26 6.94995Z" stroke="black" stroke-width="3" stroke-linecap="round" stroke-linejoin="round"/>
<path d="M27 16.95H5" stroke="black" stroke-width="3" stroke-linecap="round" stroke-linejoin="round"/>
<path d="M22 13.95C23.1046 13.95 24 13.0545 24 11.95C24 10.8454 23.1046 9.94995 22 9.94995C20.8954 9.94995 20 10.8454 20 11.95C20 13.0545 20.8954 13.95 22 13.95Z" fill="black"/>
<path d="M22 23.95C23.1046 23.95 24 23.0545 24 21.95C24 20.8454 23.1046 19.95 22 19.95C20.8954 19.95 20 20.8454 20 21.95C20 23.0545 20.8954 23.95 22 23.95Z" fill="black"/>
</svg>
