<svg width="23" height="23" viewBox="0 0 23 23" fill="none" xmlns="http://www.w3.org/2000/svg">
<path d="M19.7188 11.1954H16.9201C16.5489 11.1954 16.193 11.3428 15.9305 11.6052C15.6681 11.8677 15.5207 12.2236 15.5207 12.5947V16.0932C15.5207 16.4644 15.6681 16.8203 15.9305 17.0827C16.193 17.3452 16.5489 17.4926 16.9201 17.4926H18.3194C18.6906 17.4926 19.0465 17.3452 19.309 17.0827C19.5714 16.8203 19.7188 16.4644 19.7188 16.0932V11.1954ZM19.7188 11.1954C19.7188 10.0874 19.4995 8.99035 19.0736 7.96752C18.6477 6.94468 18.0235 6.01627 17.2371 5.23578C16.4506 4.4553 15.5175 3.83818 14.4915 3.42C13.4654 3.00182 12.3668 2.79085 11.2588 2.79925C10.1509 2.79085 9.05223 3.00182 8.02619 3.42C7.00016 3.83818 6.06704 4.4553 5.28061 5.23578C4.49419 6.01627 3.87001 6.94468 3.44407 7.96752C3.01812 8.99035 2.79883 10.0874 2.79883 11.1954V16.0932C2.79883 16.4644 2.94626 16.8203 3.2087 17.0827C3.47114 17.3452 3.82708 17.4926 4.19822 17.4926H5.59761C5.96875 17.4926 6.32469 17.3452 6.58713 17.0827C6.84956 16.8203 6.997 16.4644 6.997 16.0932V12.5947C6.997 12.2236 6.84956 11.8677 6.58713 11.6052C6.32469 11.3428 5.96875 11.1954 5.59761 11.1954H2.79883" stroke="#676879" stroke-width="2.09909" stroke-linecap="round" stroke-linejoin="round"/>
<path d="M19.7187 16.0932V18.1923C19.7187 18.9346 19.4239 19.6465 18.899 20.1714C18.3741 20.6962 17.6623 20.9911 16.92 20.9911H11.8948" stroke="#676879" stroke-width="2.09909" stroke-linecap="round" stroke-linejoin="round"/>
</svg>
