<svg width="32" height="33" viewBox="0 0 32 33" fill="none" xmlns="http://www.w3.org/2000/svg">
<path d="M16 24.95V18.95" stroke="black" stroke-width="3" stroke-linecap="round" stroke-linejoin="round"/>
<path d="M12 14.95L16 18.95L20 14.95" stroke="black" stroke-width="3" stroke-linecap="round" stroke-linejoin="round"/>
<path d="M11 29.95H21" stroke="black" stroke-width="3" stroke-linecap="round" stroke-linejoin="round"/>
<path d="M9.99585 21.9476C8.76173 21.0225 7.75871 19.824 7.06546 18.4462C6.37221 17.0685 6.00758 15.5488 6.00015 14.0064C5.9702 8.58615 10.34 4.08039 15.7589 3.95285C17.8798 3.90181 19.962 4.52659 21.7045 5.73685C23.4469 6.94712 24.7593 8.68017 25.452 10.6855C26.1446 12.6907 26.1816 14.8643 25.5576 16.892C24.9336 18.9197 23.6809 20.6964 21.9806 21.9653C21.6743 22.1972 21.4261 22.4973 21.2559 22.8418C21.0857 23.1863 20.9981 23.5658 21 23.95V23.95C21 24.2153 20.8947 24.4696 20.7071 24.6571C20.5196 24.8447 20.2652 24.95 20 24.95H12C11.7347 24.95 11.4804 24.8447 11.2929 24.6571C11.1053 24.4696 11 24.2153 11 23.95V23.9217C10.9974 23.5373 10.9053 23.1588 10.731 22.8161C10.5567 22.4735 10.305 22.1761 9.99585 21.9476V21.9476Z" stroke="black" stroke-width="3" stroke-linecap="round" stroke-linejoin="round"/>
</svg>
