<svg width="32" height="33" viewBox="0 0 32 33" fill="none" xmlns="http://www.w3.org/2000/svg">
<path d="M11.0002 29.95H21.0002" stroke="black" stroke-width="3" stroke-linecap="round" stroke-linejoin="round"/>
<path d="M9.99609 21.9476C8.76198 21.0225 7.75896 19.824 7.06571 18.4462C6.37246 17.0685 6.00782 15.5488 6.0004 14.0064C5.97045 8.58615 10.3402 4.08039 15.7591 3.95285C17.88 3.90181 19.9622 4.52658 21.7047 5.73685C23.4472 6.94712 24.7596 8.68017 25.4522 10.6855C26.1449 12.6907 26.1819 14.8643 25.5578 16.892C24.9338 18.9197 23.6811 20.6964 21.9809 21.9653C21.6745 22.1972 21.4264 22.4973 21.2562 22.8418C21.086 23.1863 20.9984 23.5658 21.0003 23.95V23.95C21.0003 24.2153 20.8949 24.4696 20.7074 24.6571C20.5198 24.8447 20.2655 24.95 20.0003 24.95H12.0002C11.735 24.95 11.4806 24.8447 11.2931 24.6571C11.1056 24.4696 11.0002 24.2153 11.0002 23.95V23.9217C10.9976 23.5373 10.9055 23.1588 10.7312 22.8161C10.5569 22.4735 10.3053 22.1761 9.99609 21.9476V21.9476Z" stroke="black" stroke-width="3" stroke-linecap="round" stroke-linejoin="round"/>
<path d="M20.3887 12.9499C20.1997 12.1236 19.7815 11.3674 19.1822 10.768C18.5828 10.1686 17.8265 9.75048 17.0002 9.56152" stroke="black" stroke-width="3" stroke-linecap="round" stroke-linejoin="round"/>
</svg>
