<svg width="23" height="23" viewBox="0 0 23 23" fill="none" xmlns="http://www.w3.org/2000/svg">
<path d="M3.49826 19.5915C4.65755 19.5915 5.59734 18.6517 5.59734 17.4924C5.59734 16.3331 4.65755 15.3933 3.49826 15.3933C2.33896 15.3933 1.39917 16.3331 1.39917 17.4924C1.39917 18.6517 2.33896 19.5915 3.49826 19.5915Z" stroke="#676879" stroke-width="2.09909" stroke-linecap="round" stroke-linejoin="round"/>
<path d="M8.39608 10.4954C9.55538 10.4954 10.4952 9.55562 10.4952 8.39633C10.4952 7.23704 9.55538 6.29725 8.39608 6.29725C7.23679 6.29725 6.297 7.23704 6.297 8.39633C6.297 9.55562 7.23679 10.4954 8.39608 10.4954Z" stroke="#676879" stroke-width="2.09909" stroke-linecap="round" stroke-linejoin="round"/>
<path d="M13.9937 16.093C15.153 16.093 16.0928 15.1532 16.0928 13.9939C16.0928 12.8346 15.153 11.8948 13.9937 11.8948C12.8344 11.8948 11.8947 12.8346 11.8947 13.9939C11.8947 15.1532 12.8344 16.093 13.9937 16.093Z" stroke="#676879" stroke-width="2.09909" stroke-linecap="round" stroke-linejoin="round"/>
<path d="M18.8916 6.99694C20.0509 6.99694 20.9907 6.05715 20.9907 4.89785C20.9907 3.73856 20.0509 2.79877 18.8916 2.79877C17.7323 2.79877 16.7925 3.73856 16.7925 4.89785C16.7925 6.05715 17.7323 6.99694 18.8916 6.99694Z" stroke="#676879" stroke-width="2.09909" stroke-linecap="round" stroke-linejoin="round"/>
<path d="M7.40084 10.2446L4.49353 15.6439" stroke="#676879" stroke-width="2.09909" stroke-linecap="round" stroke-linejoin="round"/>
<path d="M12.5093 12.5094L9.88025 9.88045" stroke="#676879" stroke-width="2.09909" stroke-linecap="round" stroke-linejoin="round"/>
<path d="M17.8963 6.74617L14.9889 12.1456" stroke="#676879" stroke-width="2.09909" stroke-linecap="round" stroke-linejoin="round"/>
</svg>
