<svg width="32" height="33" viewBox="0 0 32 33" fill="none" xmlns="http://www.w3.org/2000/svg">
<path d="M11.7566 21.1915L20.2419 12.7062" stroke="black" stroke-width="3" stroke-linecap="round" stroke-linejoin="round"/>
<path d="M18.1205 23.3138L14.5849 26.8493C13.4596 27.9742 11.9336 28.6061 10.3425 28.6059C8.75138 28.6058 7.22547 27.9737 6.10038 26.8486C4.97528 25.7235 4.34315 24.1976 4.34302 22.6064C4.34288 21.0153 4.97475 19.4893 6.09965 18.364L9.63518 14.8285" stroke="black" stroke-width="3" stroke-linecap="round" stroke-linejoin="round"/>
<path d="M22.3637 19.0705L25.8992 15.535C27.0241 14.4097 27.656 12.8837 27.6559 11.2926C27.6557 9.70146 27.0236 8.17554 25.8985 7.05045C24.7734 5.92536 23.2475 5.29323 21.6564 5.29309C20.0653 5.29295 18.5392 5.92482 17.4139 7.04972L13.8784 10.5853" stroke="black" stroke-width="3" stroke-linecap="round" stroke-linejoin="round"/>
</svg>
