<svg width="32" height="33" viewBox="0 0 32 33" fill="none" xmlns="http://www.w3.org/2000/svg">
<path d="M16.5617 8.60998L17.7677 7.40398C18.2784 6.89287 18.8847 6.48737 19.5521 6.21066C20.2195 5.93394 20.9348 5.79143 21.6573 5.79126C22.3798 5.79109 23.0953 5.93327 23.7628 6.20968C24.4303 6.48608 25.0368 6.8913 25.5477 7.40217C26.0586 7.91305 26.4638 8.51957 26.7402 9.18709C27.0166 9.85461 27.1588 10.5701 27.1586 11.2925C27.1584 12.015 27.0159 12.7304 26.7392 13.3978C26.4625 14.0652 26.057 14.6715 25.5459 15.1822L21.7604 18.9677C21.2496 19.4784 20.6433 19.8835 19.976 20.1599C19.3087 20.4363 18.5935 20.5786 17.8713 20.5786C17.149 20.5786 16.4338 20.4363 15.7665 20.1599C15.0992 19.8835 14.4929 19.4784 13.9822 18.9677" stroke="black" stroke-width="3" stroke-linecap="round" stroke-linejoin="round"/>
<path d="M15.438 25.2901L14.2322 26.4959C13.7216 27.007 13.1152 27.4125 12.4478 27.6892C11.7804 27.966 11.0651 28.1085 10.3426 28.1086C9.6201 28.1088 8.90466 27.9666 8.23714 27.6902C7.56962 27.4138 6.9631 27.0086 6.45222 26.4977C5.94135 25.9868 5.53613 25.3803 5.25973 24.7128C4.98332 24.0453 4.84114 23.3298 4.84131 22.6074C4.84148 21.8849 4.98399 21.1695 5.26071 20.5021C5.53742 19.8347 5.94292 19.2284 6.45403 18.7177L10.2396 14.9322C10.7503 14.4215 11.3566 14.0164 12.0239 13.74C12.6912 13.4636 13.4064 13.3213 14.1287 13.3213C14.8509 13.3213 15.5661 13.4636 16.2334 13.74C16.9007 14.0164 17.507 14.4215 18.0177 14.9322" stroke="black" stroke-width="3" stroke-linecap="round" stroke-linejoin="round"/>
</svg>
