<svg width="32" height="33" viewBox="0 0 32 33" fill="none" xmlns="http://www.w3.org/2000/svg">
<path d="M18.1206 23.3138L14.5851 26.8493C13.4598 27.9742 11.9337 28.6061 10.3426 28.6059C8.75151 28.6058 7.22559 27.9737 6.1005 26.8486C4.97541 25.7235 4.34328 24.1976 4.34314 22.6064C4.343 21.0153 4.97487 19.4893 6.09977 18.364L9.63531 14.8285" stroke="black" stroke-width="3" stroke-linecap="round" stroke-linejoin="round"/>
<path d="M22.3638 19.0705L25.8994 15.535C27.0243 14.4097 27.6561 12.8837 27.656 11.2926C27.6559 9.70146 27.0237 8.17554 25.8986 7.05045C24.7735 5.92536 23.2476 5.29323 21.6565 5.29309C20.0654 5.29295 18.5394 5.92482 17.4141 7.04972L13.8785 10.5853" stroke="black" stroke-width="3" stroke-linecap="round" stroke-linejoin="round"/>
</svg>
