<svg width="32" height="33" viewBox="0 0 32 33" fill="none" xmlns="http://www.w3.org/2000/svg">
<path d="M12 9.44995V6.94995" stroke="black" stroke-width="3" stroke-linecap="round" stroke-linejoin="round"/>
<path d="M20 26.95V24.45" stroke="black" stroke-width="3" stroke-linecap="round" stroke-linejoin="round"/>
<path d="M8.5 12.95H6" stroke="black" stroke-width="3" stroke-linecap="round" stroke-linejoin="round"/>
<path d="M26 20.95H23.5" stroke="black" stroke-width="3" stroke-linecap="round" stroke-linejoin="round"/>
<path d="M8.37861 17.5002L7.46439 18.4145C6.52717 19.3522 6.00078 20.6239 6.00098 21.9497C6.00117 23.2755 6.52794 24.547 7.46544 25.4845C8.40294 26.422 9.67441 26.9487 11.0002 26.9489C12.3261 26.9491 13.5977 26.4227 14.5355 25.4855L15.4497 24.5713" stroke="black" stroke-width="3" stroke-linecap="round" stroke-linejoin="round"/>
<path d="M23.6214 16.3997L24.5356 15.4855C25.4728 14.5478 25.9992 13.2761 25.999 11.9503C25.9988 10.6245 25.472 9.35302 24.5345 8.41552C23.597 7.47802 22.3256 6.95125 20.9997 6.95105C19.6739 6.95085 18.4023 7.47724 17.4645 8.41447L16.5503 9.32868" stroke="black" stroke-width="3" stroke-linecap="round" stroke-linejoin="round"/>
</svg>
