<svg width="32" height="33" viewBox="0 0 32 33" fill="none" xmlns="http://www.w3.org/2000/svg">
<path d="M9.99744 16.949H21.9974" stroke="black" stroke-width="3" stroke-linecap="round" stroke-linejoin="round"/>
<path d="M12.9966 22.9495H7.99658C6.40528 22.9495 4.87916 22.3173 3.75394 21.1921C2.62872 20.0669 1.99658 18.5408 1.99658 16.9495C1.99658 15.3582 2.62872 13.832 3.75394 12.7068C4.87916 11.5816 6.40528 10.9495 7.99658 10.9495H12.9966" stroke="black" stroke-width="3" stroke-linecap="round" stroke-linejoin="round"/>
<path d="M18.9974 22.9495H23.9974C25.5887 22.9495 27.1149 22.3173 28.2401 21.1921C29.3653 20.0669 29.9974 18.5408 29.9974 16.9495C29.9974 15.3582 29.3653 13.832 28.2401 12.7068C27.1149 11.5816 25.5887 10.9495 23.9974 10.9495H18.9974" stroke="black" stroke-width="3" stroke-linecap="round" stroke-linejoin="round"/>
</svg>
