<svg width="148" height="33" viewBox="0 0 148 33" fill="none" xmlns="http://www.w3.org/2000/svg">
<path d="M84.7237 13.1733C84.0576 13.1733 83.5248 13.7056 83.5248 14.3709V18.0967C83.5248 18.762 84.0576 19.2943 84.7237 19.2943H101.642C102.308 19.2943 102.841 18.762 102.841 18.0967V14.3709C102.841 13.7056 102.308 13.1733 101.642 13.1733H84.7237ZM108.436 24.6169H84.7237C84.0576 24.6169 83.5248 25.1491 83.5248 25.8145V29.8064C83.5248 30.4717 84.0576 31.004 84.7237 31.004H108.569C109.235 31.004 109.768 30.4717 109.768 29.8064V25.8145C109.635 25.1491 109.102 24.6169 108.436 24.6169ZM107.104 7.31849C107.77 7.31849 108.302 6.78624 108.302 6.12091V1.86285C108.302 1.19753 107.77 0.665268 107.104 0.665268H84.4573C78.063 0.665268 72.3348 4.6572 69.937 10.6451L65.4077 23.0201C64.342 25.6814 61.9442 25.8145 61.1449 25.8145C60.3456 25.8145 57.9478 25.5483 57.1485 22.754L55.0171 15.4354C53.5518 10.6451 49.2889 7.45156 44.2268 7.45156C39.1647 7.45156 34.7687 10.9112 33.3033 15.7016L31.3051 22.754C30.5059 25.5483 27.9748 25.8145 27.3087 25.8145C26.6427 25.8145 24.1116 25.6814 23.0459 23.0201L18.3834 10.6451C16.1188 4.6572 10.3906 0.798332 3.9964 0.798332H1.19892C0.532853 0.798332 0 1.33059 0 1.86285V6.52011C0 7.18543 0.532853 7.71769 1.19892 7.71769H3.9964C7.59316 7.71769 10.7903 9.84672 11.9892 13.1733L16.5185 25.0161C18.2502 29.5403 22.5131 32.4677 27.4419 32.3346C32.3708 32.2016 36.5005 29.008 37.9658 24.3508L40.0972 17.0322C40.7633 14.7701 42.7615 13.9717 44.2268 13.9717C45.8254 13.9717 47.6904 14.7701 48.3564 17.0322L50.4879 24.3508C51.9532 28.8749 56.0828 32.0685 60.8785 32.3346C61.0117 32.3346 61.2781 32.3346 61.4113 32.3346C66.207 32.3346 70.3366 29.5403 71.9352 25.0161L76.5977 12.7741C77.7966 9.58059 80.9937 7.31849 84.4573 7.31849H107.104Z" fill="#6334C0"/>
<path d="M143.204 2.66129C142.805 2.66129 142.272 2.79436 142.005 3.19355L137.343 10.1129C137.076 10.5121 137.076 11.1774 137.476 11.5766L140.94 15.0363C140.94 21.1573 136.011 26.0806 129.883 26.0806L126.419 22.621C126.02 22.2218 125.354 22.2218 124.954 22.4879L118.027 27.1452C117.627 27.4113 117.494 27.8105 117.494 28.3427C117.894 31.004 120.158 33.1331 122.956 33.1331C136.677 33.1331 147.867 21.9556 147.867 8.25C148 5.32258 145.868 3.06048 143.204 2.66129ZM132.68 2.52823C132.947 2.52823 133.213 2.52823 133.613 2.52823C133.879 2.52823 134.146 2.2621 134.146 1.99597V0.532258C134.146 0.266129 133.879 0 133.613 0C124.288 0.266129 116.828 7.71774 116.562 17.0323C116.562 17.2984 116.828 17.5645 117.094 17.5645H118.56C118.826 17.5645 119.093 17.2984 119.093 17.0323C119.093 16.7661 119.093 16.5 119.093 16.1008C119.625 8.91532 125.487 3.19355 132.68 2.52823ZM134.012 5.58871C134.012 5.32258 133.746 5.05645 133.48 5.05645C126.952 5.32258 121.757 10.5121 121.49 17.0323C121.49 17.2984 121.757 17.5645 122.023 17.5645H123.489C123.755 17.5645 124.021 17.2984 124.021 17.0323C124.021 16.7661 124.021 16.5 124.155 16.1008C124.821 11.7097 128.284 8.11694 132.68 7.58468C132.947 7.58468 133.213 7.45161 133.613 7.45161C133.879 7.45161 134.146 7.18548 134.146 6.91935V5.58871H134.012ZM133.48 10.1129C129.75 10.379 126.819 13.3065 126.553 17.0323C126.553 17.2984 126.819 17.5645 127.085 17.5645H128.551C128.817 17.5645 129.084 17.2984 129.084 17.0323C129.084 16.7661 129.217 16.3669 129.217 16.1008C129.75 14.504 130.949 13.1734 132.68 12.6411C132.947 12.5081 133.213 12.5081 133.613 12.5081C133.879 12.5081 134.146 12.2419 134.146 11.9758V10.6452C134.012 10.379 133.746 10.1129 133.48 10.1129Z" fill="#6334C0"/>
</svg>
