<svg width="19" height="20" viewBox="0 0 19 20" fill="none" xmlns="http://www.w3.org/2000/svg">
<path d="M16.1672 1.60643C15.9246 1.60643 15.6013 1.68675 15.4396 1.92771L12.6104 6.10442C12.4487 6.34538 12.4487 6.74699 12.6912 6.98795L14.7929 9.07631C14.7929 12.7711 11.802 15.743 8.08358 15.743L5.98185 13.6546C5.73934 13.4137 5.33516 13.4137 5.09266 13.5743L0.889192 16.3855C0.646685 16.5462 0.565848 16.7871 0.565848 17.1084C0.808355 18.7149 2.18257 20 3.88012 20C12.2062 20 18.9964 13.253 18.9964 4.97992C19.0772 3.21285 17.7839 1.84739 16.1672 1.60643ZM9.78113 1.5261C9.9428 1.5261 10.1045 1.5261 10.347 1.5261C10.5087 1.5261 10.6703 1.36546 10.6703 1.20482V0.321285C10.6703 0.160643 10.5087 0 10.347 0C4.68848 0.160643 0.161672 4.65863 0 10.2811C0 10.4418 0.161673 10.6024 0.323344 10.6024H1.21254C1.37421 10.6024 1.53588 10.4418 1.53588 10.2811C1.53588 10.1205 1.53588 9.95984 1.53588 9.71888C1.85922 5.38153 5.416 1.92771 9.78113 1.5261ZM10.5895 3.37349C10.5895 3.21285 10.4278 3.05221 10.2661 3.05221C6.30519 3.21285 3.15259 6.34538 2.99092 10.2811C2.99092 10.4418 3.15259 10.6024 3.31427 10.6024H4.20346C4.36513 10.6024 4.5268 10.4418 4.5268 10.2811C4.5268 10.1205 4.5268 9.95984 4.60764 9.71888C5.01182 7.06827 7.11355 4.8996 9.78113 4.57831C9.9428 4.57831 10.1045 4.49799 10.347 4.49799C10.5087 4.49799 10.6703 4.33735 10.6703 4.17671V3.37349H10.5895ZM10.2661 6.10442C8.00274 6.26506 6.22435 8.03213 6.06268 10.2811C6.06268 10.4418 6.22436 10.6024 6.38603 10.6024H7.27522C7.43689 10.6024 7.59856 10.4418 7.59856 10.2811C7.59856 10.1205 7.6794 9.87952 7.6794 9.71888C8.00274 8.75502 8.73026 7.95181 9.78113 7.63052C9.9428 7.5502 10.1045 7.5502 10.347 7.5502C10.5087 7.5502 10.6703 7.38956 10.6703 7.22892V6.4257C10.5895 6.26506 10.4278 6.10442 10.2661 6.10442Z" fill="#6334C0"/>
</svg>
