<svg width="32" height="33" viewBox="0 0 32 33" fill="none" xmlns="http://www.w3.org/2000/svg">
<path d="M26 16.95V26.95C26 27.2152 25.8946 27.4695 25.7071 27.6571C25.5196 27.8446 25.2652 27.95 25 27.95H6C5.73478 27.95 5.48043 27.8446 5.29289 27.6571C5.10536 27.4695 5 27.2152 5 26.95V7.94995C5 7.68473 5.10536 7.43038 5.29289 7.24284C5.48043 7.05531 5.73478 6.94995 6 6.94995H16" stroke="black" stroke-width="3" stroke-linecap="round" stroke-linejoin="round"/>
<path d="M24.5 11.95C26.433 11.95 28 10.3829 28 8.44995C28 6.51695 26.433 4.94995 24.5 4.94995C22.567 4.94995 21 6.51695 21 8.44995C21 10.3829 22.567 11.95 24.5 11.95Z" stroke="black" stroke-width="3" stroke-linecap="round" stroke-linejoin="round"/>
</svg>
