<svg width="32" height="33" viewBox="0 0 32 33" fill="none" xmlns="http://www.w3.org/2000/svg">
<path d="M27.4999 22.8665V11.0334C27.4999 10.8563 27.4529 10.6824 27.3636 10.5295C27.2744 10.3765 27.1461 10.25 26.9919 10.1629L16.4919 4.22807C16.3418 4.14322 16.1723 4.09863 15.9999 4.09863C15.8274 4.09863 15.6579 4.14322 15.5078 4.22807L5.00782 10.1629C4.85366 10.25 4.72539 10.3765 4.63615 10.5295C4.5469 10.6824 4.49988 10.8563 4.49988 11.0334V22.8665C4.49988 23.0436 4.5469 23.2175 4.63615 23.3704C4.72539 23.5234 4.85366 23.6499 5.00782 23.737L15.5078 29.6718C15.6579 29.7567 15.8274 29.8013 15.9999 29.8013C16.1723 29.8013 16.3418 29.7567 16.4919 29.6718L26.9919 23.737C27.1461 23.6499 27.2744 23.5234 27.3636 23.3704C27.4529 23.2175 27.4999 23.0436 27.4999 22.8665V22.8665Z" stroke="black" stroke-width="3" stroke-linecap="round" stroke-linejoin="round"/>
<path d="M15.9999 21.45C18.4852 21.45 20.4999 19.4352 20.4999 16.95C20.4999 14.4647 18.4852 12.45 15.9999 12.45C13.5146 12.45 11.4999 14.4647 11.4999 16.95C11.4999 19.4352 13.5146 21.45 15.9999 21.45Z" stroke="black" stroke-width="3" stroke-linecap="round" stroke-linejoin="round"/>
</svg>
