<svg width="23" height="23" viewBox="0 0 23 23" fill="none" xmlns="http://www.w3.org/2000/svg">
<path d="M19.1413 12.9019C19.2838 12.2735 19.3529 11.6307 19.3471 10.9863C19.3087 6.42327 15.5333 2.72008 10.9703 2.76605C9.02138 2.78642 7.14192 3.49253 5.66174 4.76046C4.18155 6.02839 3.19521 7.77712 2.87581 9.69977C2.55641 11.6224 2.92436 13.5961 3.91509 15.2745C4.90582 16.953 6.45602 18.2288 8.29365 18.8782C8.60631 18.9883 8.94082 19.0219 9.26913 18.976C9.59743 18.9302 9.90996 18.8063 10.1805 18.6147C10.451 18.4231 10.6717 18.1695 10.8239 17.875C10.9762 17.5806 11.0556 17.2539 11.0555 16.9224V16.5854C11.0555 16.0356 11.2739 15.5083 11.6627 15.1196C12.0514 14.7308 12.5787 14.5124 13.1285 14.5124H17.1197C17.5893 14.5127 18.0451 14.3535 18.4123 14.0609C18.7796 13.7684 19.0366 13.3597 19.1413 12.9019V12.9019Z" stroke="#676879" stroke-width="2.07296" stroke-linecap="round" stroke-linejoin="round"/>
<path d="M11.0558 7.94754C11.819 7.94754 12.4378 7.32881 12.4378 6.56557C12.4378 5.80232 11.819 5.18359 11.0558 5.18359C10.2926 5.18359 9.67383 5.80232 9.67383 6.56557C9.67383 7.32881 10.2926 7.94754 11.0558 7.94754Z" fill="#676879"/>
<path d="M7.16592 10.1932C7.92904 10.1932 8.54767 9.57455 8.54767 8.81143C8.54767 8.04832 7.92904 7.42969 7.16592 7.42969C6.40281 7.42969 5.78418 8.04832 5.78418 8.81143C5.78418 9.57455 6.40281 10.1932 7.16592 10.1932Z" fill="#676879"/>
<path d="M7.16592 14.6815C7.92904 14.6815 8.54767 14.0628 8.54767 13.2997C8.54767 12.5366 7.92904 11.918 7.16592 11.918C6.40281 11.918 5.78418 12.5366 5.78418 13.2997C5.78418 14.0628 6.40281 14.6815 7.16592 14.6815Z" fill="#676879"/>
<path d="M14.9452 10.1932C15.7083 10.1932 16.327 9.57455 16.327 8.81143C16.327 8.04832 15.7083 7.42969 14.9452 7.42969C14.1821 7.42969 13.5635 8.04832 13.5635 8.81143C13.5635 9.57455 14.1821 10.1932 14.9452 10.1932Z" fill="#676879"/>
</svg>
