<svg width="23" height="24" viewBox="0 0 23 24" fill="none" xmlns="http://www.w3.org/2000/svg">
<path d="M8.44177 20.0899C8.23306 20.0899 8.02905 20.028 7.85553 19.9121C7.682 19.7961 7.54676 19.6313 7.46689 19.4385C7.38702 19.2457 7.36613 19.0335 7.40684 18.8288C7.44755 18.6241 7.54805 18.4361 7.69562 18.2885L13.9844 11.9997L7.69562 5.71085C7.50038 5.51241 7.39147 5.24486 7.3926 4.96648C7.39374 4.6881 7.50482 4.42145 7.70167 4.2246C7.89851 4.02776 8.16517 3.91667 8.44355 3.91554C8.72192 3.9144 8.98947 4.02332 9.18792 4.21855L16.2229 11.2535C16.4208 11.4514 16.532 11.7198 16.532 11.9997C16.532 12.2796 16.4208 12.5479 16.2229 12.7458L9.18792 19.7808C9.09004 19.879 8.97373 19.9568 8.84569 20.0098C8.71764 20.0629 8.58037 20.0901 8.44177 20.0899V20.0899Z" fill="#676879"/>
</svg>
