<svg width="23" height="23" viewBox="0 0 23 23" fill="none" xmlns="http://www.w3.org/2000/svg">
<path d="M12.7124 3.17295C12.7832 2.90857 12.956 2.68311 13.1929 2.54613C13.4298 2.40915 13.7115 2.37188 13.9759 2.44251C15.3172 2.8032 16.5403 3.51003 17.5225 4.49221C18.5046 5.47439 19.2115 6.69743 19.5722 8.0388C19.6072 8.16972 19.616 8.30625 19.5983 8.4406C19.5805 8.57494 19.5364 8.70447 19.4686 8.82179C19.4008 8.93912 19.3105 9.04193 19.2029 9.12436C19.0954 9.2068 18.9726 9.26724 18.8417 9.30223C18.7108 9.33723 18.5743 9.3461 18.4399 9.32833C18.3056 9.31056 18.176 9.26651 18.0587 9.19868C17.9414 9.13085 17.8386 9.04058 17.7562 8.93302C17.6737 8.82546 17.6133 8.70271 17.5783 8.57179C17.3118 7.58056 16.7895 6.67677 16.0637 5.95097C15.3379 5.22516 14.4341 4.70283 13.4429 4.4363C13.1785 4.36562 12.953 4.19283 12.8161 3.95593C12.6791 3.71903 12.6418 3.43742 12.7124 3.17304V3.17295ZM20.2542 15.0987C20.0942 16.3437 19.4864 17.4878 18.5444 18.3173C17.6024 19.1469 16.3906 19.6051 15.1354 19.6065C8.11766 19.6065 2.4082 13.897 2.4082 6.87924C2.40955 5.62406 2.86781 4.41228 3.69736 3.47029C4.52691 2.5283 5.67102 1.92052 6.91596 1.76049C7.28568 1.71585 7.65992 1.79202 7.98278 1.97763C8.30563 2.16324 8.55977 2.44831 8.70724 2.79028L10.4349 6.82154C10.5469 7.08218 10.5926 7.36654 10.5679 7.64917C10.5431 7.9318 10.4487 8.20388 10.2931 8.44108L8.97167 10.4602C9.56014 11.5676 10.4686 12.4721 11.5785 13.0556L13.5648 11.7312C13.8027 11.572 14.0766 11.4749 14.3615 11.4487C14.6465 11.4225 14.9335 11.468 15.1964 11.5812L19.2243 13.3074C19.5664 13.4547 19.8516 13.7089 20.0373 14.0317C20.2229 14.3546 20.299 14.729 20.2542 15.0987ZM18.1629 15.0979L14.5548 13.5517L12.557 14.8838C12.3093 15.0492 12.0229 15.1473 11.7259 15.1687C11.4289 15.19 11.1314 15.1338 10.8626 15.0056C9.19299 14.1965 7.84221 12.8519 7.02552 11.1859C6.89672 10.9188 6.83917 10.6228 6.85846 10.3269C6.87774 10.0309 6.97321 9.74495 7.1356 9.49675L8.46533 7.46504L6.91674 3.8518C6.22485 4.0015 5.60503 4.38347 5.16029 4.93422C4.71556 5.48498 4.4727 6.17135 4.47208 6.87924C4.47526 9.70636 5.59975 12.4168 7.59882 14.4159C9.5979 16.4149 12.3083 17.5394 15.1354 17.5426C15.8433 17.5419 16.5297 17.2991 17.0804 16.8543C17.6312 16.4096 18.0132 15.7898 18.1629 15.0979ZM12.5234 7.69362C12.9455 7.82667 13.3293 8.05953 13.6422 8.37246C13.9551 8.6854 14.188 9.06917 14.3211 9.49125C14.4032 9.75231 14.5858 9.97004 14.8285 10.0965C14.9487 10.1592 15.08 10.1975 15.215 10.2094C15.35 10.2212 15.486 10.2064 15.6153 10.1657C15.7446 10.125 15.8645 10.0593 15.9684 9.97219C16.0722 9.88513 16.1579 9.77846 16.2206 9.65828C16.2832 9.5381 16.3215 9.40676 16.3334 9.27176C16.3453 9.13677 16.3304 9.00075 16.2897 8.87149C16.0568 8.1327 15.6492 7.46096 15.1015 6.91321C14.5537 6.36546 13.882 5.95785 13.1432 5.72494C13.0139 5.68424 12.8779 5.66941 12.7429 5.68128C12.6079 5.69315 12.4766 5.73149 12.3564 5.79412C12.1137 5.92061 11.9312 6.13833 11.849 6.39939C11.7668 6.66046 11.7917 6.94348 11.9182 7.18619C12.0446 7.4289 12.2624 7.61143 12.5234 7.69362Z" fill="#676879"/>
</svg>
