<svg width="23" height="23" viewBox="0 0 23 23" fill="none" xmlns="http://www.w3.org/2000/svg">
<path d="M19.606 9.32225C19.9941 9.24241 20.3429 9.03133 20.5937 8.72452C20.8445 8.41771 20.982 8.03388 20.983 7.63761V5.50408C20.9825 5.04808 20.8012 4.61091 20.4787 4.28848C20.1563 3.96604 19.7191 3.78468 19.2631 3.78418H2.75212C2.29613 3.78468 1.85896 3.96604 1.53653 4.28848C1.21409 4.61091 1.03273 5.04808 1.03223 5.50408V7.63761C1.03325 8.03388 1.17072 8.41771 1.42151 8.72452C1.67231 9.03133 2.02111 9.24241 2.40926 9.32225C2.79749 9.40187 3.14633 9.61308 3.39683 9.92018C3.64734 10.2273 3.78415 10.6114 3.78415 11.0077C3.78415 11.4041 3.64734 11.7882 3.39683 12.0953C3.14633 12.4024 2.79749 12.6136 2.40926 12.6932C2.02111 12.7731 1.67231 12.9842 1.42151 13.291C1.17072 13.5978 1.03325 13.9816 1.03223 14.3779V16.5114C1.03273 16.9674 1.21409 17.4046 1.53653 17.727C1.85896 18.0494 2.29613 18.2308 2.75212 18.2313H19.2631C19.7191 18.2308 20.1563 18.0494 20.4787 17.727C20.8012 17.4046 20.9825 16.9674 20.983 16.5114V14.3779C20.982 13.9816 20.8445 13.5978 20.5937 13.291C20.3429 12.9842 19.9941 12.7731 19.606 12.6932C19.2178 12.6136 18.8689 12.4024 18.6184 12.0953C18.3679 11.7882 18.2311 11.4041 18.2311 11.0077C18.2311 10.6114 18.3679 10.2273 18.6184 9.92018C18.8689 9.61308 19.2178 9.40187 19.606 9.32225ZM3.0961 14.6488C3.88844 14.4239 4.5858 13.9467 5.08237 13.2896C5.57894 12.6325 5.84761 11.8314 5.84761 11.0077C5.84761 10.1841 5.57894 9.38297 5.08237 8.72587C4.5858 8.06877 3.88844 7.59158 3.0961 7.36672V5.84806H7.22385V16.1674H3.0961V14.6488ZM18.9191 14.6488V16.1674H9.28773V5.84806H18.9191V7.36672C18.1268 7.59158 17.4294 8.06877 16.9329 8.72587C16.4363 9.38297 16.1676 10.1841 16.1676 11.0077C16.1676 11.8314 16.4363 12.6325 16.9329 13.2896C17.4294 13.9467 18.1268 14.4239 18.9191 14.6488Z" fill="#676879"/>
</svg>
