<svg width="23" height="23" viewBox="0 0 23 23" fill="none" xmlns="http://www.w3.org/2000/svg">
<path d="M2.13192 10.8003C2.24027 10.8817 2.3636 10.9409 2.49485 10.9747C2.62611 11.0084 2.76273 11.016 2.89691 10.9969C3.03109 10.9778 3.16019 10.9325 3.27685 10.8635C3.39351 10.7946 3.49544 10.7033 3.57681 10.5949C3.96137 10.0822 4.46003 9.66597 5.0333 9.37933C5.60658 9.09269 6.23871 8.94346 6.87965 8.94346C7.52059 8.94346 8.15273 9.09269 8.72601 9.37933C9.29928 9.66597 9.79794 10.0822 10.1825 10.5949C10.184 10.5969 10.1859 10.5987 10.1874 10.6008C10.2061 10.6251 10.2256 10.6488 10.2466 10.6717C10.2528 10.6784 10.2593 10.6846 10.2657 10.6912C10.2825 10.7086 10.2995 10.7258 10.3177 10.7421C10.3291 10.7525 10.3411 10.7617 10.3529 10.7714C10.3644 10.781 10.3752 10.7911 10.3874 10.8003C10.3907 10.8028 10.3943 10.8048 10.3976 10.8073C10.4055 10.8131 10.4137 10.8183 10.4217 10.8239C10.4401 10.8366 10.4587 10.8489 10.4776 10.8602C10.4862 10.8654 10.4948 10.8701 10.5034 10.8748C10.5238 10.8863 10.5444 10.897 10.5653 10.907C10.5722 10.9103 10.5791 10.9136 10.5861 10.9167C10.612 10.9283 10.6382 10.9388 10.6648 10.9482L10.6716 10.9508C10.7328 10.9718 10.7959 10.9871 10.86 10.9962L10.8695 10.9974C10.8966 11.001 10.9237 11.0035 10.9509 11.005C10.9587 11.0054 10.9665 11.0056 10.9744 11.0059C10.9851 11.0062 10.9958 11.0072 11.0064 11.0072C11.0145 11.0072 11.0226 11.006 11.0307 11.0058C11.0533 11.0053 11.0759 11.0039 11.0985 11.0019C11.1117 11.0008 11.1249 10.9998 11.1381 10.9981C11.1646 10.9947 11.1909 10.99 11.2171 10.9845C11.2266 10.9825 11.2361 10.981 11.2455 10.9789C11.3178 10.9618 11.388 10.937 11.455 10.9047C11.4664 10.8992 11.4773 10.8925 11.4887 10.8866C11.5097 10.8754 11.5306 10.8642 11.5511 10.8515C11.5656 10.8426 11.5794 10.8326 11.5934 10.823C11.6046 10.8152 11.6164 10.8083 11.6274 10.8C11.6332 10.7955 11.6384 10.7905 11.6442 10.786C11.6569 10.7758 11.6695 10.7654 11.6817 10.7547C11.7002 10.7387 11.718 10.7223 11.7351 10.7052C11.7439 10.6965 11.7527 10.6877 11.7613 10.6786C11.7836 10.6547 11.8045 10.6301 11.8241 10.6046C11.8266 10.6012 11.8297 10.5983 11.8323 10.5949C12.2169 10.0822 12.7155 9.66597 13.2888 9.37933C13.8621 9.09269 14.4942 8.94346 15.1352 8.94346C15.7761 8.94346 16.4082 9.09269 16.9815 9.37933C17.5548 9.66597 18.0534 10.0822 18.438 10.5949C18.6024 10.8137 18.847 10.9583 19.118 10.9968C19.389 11.0352 19.6641 10.9645 19.883 10.8001C20.1018 10.6357 20.2463 10.3911 20.2848 10.1201C20.3233 9.84912 20.2526 9.57395 20.0882 9.35512C19.5139 8.58654 18.7689 7.96195 17.9119 7.53065C18.2868 7.01785 18.5125 6.41124 18.5638 5.77805C18.615 5.14486 18.49 4.50983 18.2024 3.94337C17.9149 3.37691 17.4761 2.90114 16.9347 2.5688C16.3933 2.23647 15.7705 2.06055 15.1352 2.06055C14.4999 2.06055 13.8771 2.23647 13.3357 2.5688C12.7943 2.90114 12.3555 3.37691 12.0679 3.94337C11.7804 4.50983 11.6553 5.14486 11.7066 5.77805C11.7579 6.41124 11.9836 7.01785 12.3585 7.53065C11.8689 7.77644 11.4145 8.08681 11.0074 8.45347C10.6004 8.08682 10.146 7.77644 9.65647 7.53065C10.0314 7.01785 10.257 6.41123 10.3083 5.77805C10.3595 5.14488 10.2345 4.50987 9.94691 3.94342C9.65936 3.37698 9.22057 2.90122 8.67918 2.5689C8.13779 2.23658 7.51495 2.06066 6.8797 2.06066C6.24445 2.06066 5.6216 2.23658 5.08021 2.5689C4.53882 2.90122 4.10003 3.37698 3.81248 3.94342C3.52493 4.50987 3.39986 5.14488 3.45112 5.77805C3.50239 6.41123 3.72799 7.01785 4.10292 7.53065C3.24586 7.96201 2.5008 8.58669 1.92657 9.35538C1.84518 9.46373 1.78593 9.58706 1.7522 9.71831C1.71847 9.84957 1.71092 9.98618 1.72999 10.1204C1.74906 10.2545 1.79437 10.3836 1.86334 10.5003C1.9323 10.6169 2.02357 10.7189 2.13192 10.8003ZM13.7593 5.50359C13.7593 5.23146 13.84 4.96544 13.9912 4.73917C14.1424 4.5129 14.3572 4.33654 14.6087 4.2324C14.8601 4.12826 15.1367 4.10102 15.4036 4.15411C15.6705 4.2072 15.9157 4.33824 16.1081 4.53067C16.3005 4.72309 16.4316 4.96826 16.4847 5.23516C16.5378 5.50206 16.5105 5.77871 16.4064 6.03013C16.3022 6.28154 16.1259 6.49643 15.8996 6.64762C15.6733 6.79881 15.4073 6.8795 15.1352 6.8795C14.7704 6.87909 14.4207 6.734 14.1627 6.47605C13.9048 6.21811 13.7597 5.86838 13.7593 5.50359ZM5.50378 5.50359C5.50378 5.23146 5.58448 4.96544 5.73566 4.73917C5.88685 4.5129 6.10174 4.33654 6.35316 4.2324C6.60457 4.12826 6.88122 4.10102 7.14813 4.15411C7.41503 4.2072 7.66019 4.33824 7.85262 4.53067C8.04504 4.72309 8.17609 4.96826 8.22918 5.23516C8.28227 5.50206 8.25502 5.77871 8.15088 6.03013C8.04674 6.28154 7.87038 6.49643 7.64412 6.64762C7.41785 6.79881 7.15183 6.8795 6.8797 6.8795C6.51491 6.87909 6.16517 6.734 5.90723 6.47605C5.64928 6.21811 5.50419 5.86838 5.50378 5.50359ZM17.912 16.8181C18.2869 16.3053 18.5125 15.6987 18.5638 15.0655C18.615 14.4323 18.49 13.7973 18.2024 13.2309C17.9149 12.6644 17.4761 12.1887 16.9347 11.8563C16.3933 11.524 15.7704 11.3481 15.1352 11.3481C14.4999 11.3481 13.8771 11.524 13.3357 11.8563C12.7943 12.1887 12.3555 12.6644 12.068 13.2309C11.7804 13.7973 11.6554 14.4323 11.7066 15.0655C11.7579 15.6987 11.9835 16.3053 12.3584 16.8181C11.8688 17.0639 11.4145 17.3743 11.0074 17.7409C10.6004 17.3743 10.146 17.0639 9.65647 16.8181C10.0314 16.3053 10.257 15.6987 10.3083 15.0655C10.3595 14.4323 10.2345 13.7973 9.94691 13.2309C9.65936 12.6644 9.22057 12.1887 8.67918 11.8563C8.13779 11.524 7.51495 11.3481 6.8797 11.3481C6.24445 11.3481 5.6216 11.524 5.08021 11.8563C4.53882 12.1887 4.10003 12.6644 3.81248 13.2309C3.52493 13.7973 3.39986 14.4323 3.45112 15.0655C3.50239 15.6987 3.72799 16.3053 4.10292 16.8181C3.24586 17.2494 2.5008 17.8741 1.92657 18.6428C1.7622 18.8617 1.69149 19.1368 1.73 19.4078C1.76851 19.6788 1.91309 19.9233 2.13192 20.0877C2.35076 20.2521 2.62593 20.3228 2.8969 20.2843C3.16787 20.2458 3.41244 20.1012 3.57681 19.8823C3.96137 19.3696 4.46003 18.9534 5.0333 18.6668C5.60658 18.3801 6.23871 18.2309 6.87965 18.2309C7.52059 18.2309 8.15273 18.3801 8.72601 18.6668C9.29928 18.9534 9.79794 19.3696 10.1825 19.8823C10.184 19.8843 10.1859 19.8861 10.1874 19.8882C10.2061 19.9125 10.2256 19.9363 10.2465 19.9591C10.2528 19.9659 10.2596 19.9723 10.266 19.979C10.2827 19.9962 10.2995 20.0133 10.3176 20.0295C10.3293 20.0401 10.3416 20.0496 10.3537 20.0596C10.365 20.0689 10.3756 20.0788 10.3874 20.0877C10.3906 20.0901 10.394 20.0922 10.3973 20.0946C10.4056 20.1006 10.4142 20.1061 10.4226 20.112C10.4488 20.1303 10.476 20.1472 10.504 20.1627C10.524 20.1739 10.5442 20.1844 10.5646 20.1941C10.572 20.1975 10.5792 20.2011 10.5866 20.2044C10.6119 20.2157 10.6375 20.226 10.6634 20.2351C10.6663 20.2361 10.6691 20.2374 10.6721 20.2384C10.733 20.2593 10.7958 20.2745 10.8595 20.2837L10.8708 20.285C10.8972 20.2885 10.9237 20.291 10.9503 20.2925C10.9586 20.2929 10.9668 20.2931 10.975 20.2933C10.9855 20.2937 10.9959 20.2946 11.0064 20.2946C11.0143 20.2946 11.0223 20.2934 11.0303 20.2932C11.0532 20.2928 11.0761 20.2913 11.0989 20.2894C11.1119 20.2882 11.1249 20.2872 11.1379 20.2855C11.1646 20.2821 11.1912 20.2773 11.2177 20.2718C11.2269 20.2699 11.2362 20.2685 11.2454 20.2663C11.3177 20.2493 11.388 20.2244 11.455 20.1922C11.4664 20.1867 11.4773 20.1801 11.4886 20.1741C11.5097 20.1629 11.5307 20.1516 11.5512 20.1389C11.5656 20.1299 11.5794 20.12 11.5933 20.1104C11.6047 20.1027 11.6163 20.0958 11.6274 20.0874C11.6332 20.083 11.6384 20.078 11.6442 20.0734C11.6569 20.0633 11.6695 20.0528 11.6817 20.0421C11.7002 20.0262 11.718 20.0097 11.7351 19.9927C11.7439 19.9839 11.7527 19.9751 11.7613 19.966C11.7835 19.9422 11.8044 19.9175 11.8241 19.8921C11.8266 19.8886 11.8296 19.8858 11.8323 19.8823C12.2169 19.3696 12.7155 18.9534 13.2888 18.6668C13.8621 18.3801 14.4942 18.2309 15.1352 18.2309C15.7761 18.2309 16.4082 18.3801 16.9815 18.6668C17.5548 18.9534 18.0534 19.3696 18.438 19.8823C18.5194 19.9907 18.6214 20.082 18.738 20.1509C18.8547 20.2199 18.9838 20.2651 19.118 20.2842C19.2522 20.3033 19.3888 20.2957 19.52 20.2619C19.6513 20.2282 19.7746 20.1689 19.883 20.0875C19.9913 20.0061 20.0826 19.9042 20.1515 19.7875C20.2205 19.6708 20.2658 19.5417 20.2848 19.4075C20.3039 19.2734 20.2963 19.1367 20.2626 19.0055C20.2288 18.8742 20.1696 18.7509 20.0882 18.6426C19.5139 17.874 18.7689 17.2494 17.9119 16.8181H17.912ZM5.50378 14.791C5.50378 14.5189 5.58448 14.2529 5.73566 14.0266C5.88685 13.8003 6.10174 13.624 6.35316 13.5198C6.60457 13.4157 6.88122 13.3885 7.14813 13.4415C7.41503 13.4946 7.66019 13.6257 7.85262 13.8181C8.04504 14.0105 8.17609 14.2557 8.22918 14.5226C8.28227 14.7895 8.25502 15.0661 8.15088 15.3176C8.04674 15.569 7.87038 15.7839 7.64412 15.9351C7.41785 16.0862 7.15183 16.1669 6.8797 16.1669C6.51491 16.1665 6.16517 16.0214 5.90723 15.7635C5.64928 15.5055 5.50419 15.1558 5.50378 14.791ZM13.7593 14.791C13.7593 14.5189 13.84 14.2529 13.9912 14.0266C14.1424 13.8003 14.3572 13.624 14.6087 13.5198C14.8601 13.4157 15.1367 13.3885 15.4036 13.4415C15.6705 13.4946 15.9157 13.6257 16.1081 13.8181C16.3005 14.0105 16.4316 14.2557 16.4847 14.5226C16.5378 14.7895 16.5105 15.0661 16.4064 15.3176C16.3022 15.569 16.1259 15.7839 15.8996 15.9351C15.6733 16.0862 15.4073 16.1669 15.1352 16.1669C14.7704 16.1665 14.4207 16.0214 14.1627 15.7635C13.9048 15.5055 13.7597 15.1558 13.7593 14.791Z" fill="#676879"/>
</svg>
