<svg width="23" height="23" viewBox="0 0 23 23" fill="none" xmlns="http://www.w3.org/2000/svg">
<path d="M13.943 3.49831C15.1291 3.81731 16.2107 4.44239 17.0792 5.31093C17.9477 6.17947 18.5728 7.26098 18.8918 8.44713" stroke="#676879" stroke-width="2.09909" stroke-linecap="round" stroke-linejoin="round"/>
<path d="M8.08821 10.9165C8.814 12.4003 10.0168 13.5976 11.5039 14.3167C11.6127 14.3682 11.733 14.3905 11.8531 14.3815C11.9732 14.3724 12.0888 14.3322 12.1886 14.2648L14.3783 12.8047C14.4751 12.7402 14.5865 12.7008 14.7024 12.6901C14.8184 12.6795 14.9351 12.6979 15.0421 12.7437L19.1385 14.4994C19.2777 14.5585 19.3939 14.6612 19.4696 14.7921C19.5453 14.923 19.5764 15.0749 19.5582 15.225C19.4287 16.2382 18.9344 17.1694 18.1678 17.8443C17.4011 18.5193 16.4148 18.8916 15.3934 18.8917C12.2387 18.8917 9.21316 17.6385 6.98245 15.4078C4.75174 13.1771 3.49854 10.1516 3.49854 6.99686C3.49859 5.97546 3.87094 4.9891 4.54587 4.22247C5.22081 3.45583 6.15204 2.9615 7.1652 2.83202C7.3153 2.81385 7.46723 2.84496 7.59811 2.92065C7.72899 2.99635 7.83173 3.11252 7.89084 3.25168L9.648 7.35171C9.69345 7.45776 9.71197 7.5734 9.70191 7.68834C9.69185 7.80328 9.65352 7.91395 9.59033 8.01049L8.13528 10.2337C8.06906 10.3338 8.02991 10.4492 8.02166 10.5689C8.01341 10.6886 8.03634 10.8083 8.08821 10.9165V10.9165Z" stroke="#676879" stroke-width="2.09909" stroke-linecap="round" stroke-linejoin="round"/>
<path d="M13.052 6.82391C13.6421 7.01058 14.1785 7.33647 14.6161 7.77408C15.0538 8.21169 15.3796 8.74817 15.5663 9.33822" stroke="#676879" stroke-width="2.09909" stroke-linecap="round" stroke-linejoin="round"/>
</svg>
