<svg width="23" height="23" viewBox="0 0 23 23" fill="none" xmlns="http://www.w3.org/2000/svg">
<path d="M11.1952 19.5914C15.8323 19.5914 19.5915 15.8322 19.5915 11.195C19.5915 6.55785 15.8323 2.79868 11.1952 2.79868C6.558 2.79868 2.79883 6.55785 2.79883 11.195C2.79883 15.8322 6.558 19.5914 11.1952 19.5914Z" stroke="#676879" stroke-width="2.09909" stroke-linecap="round" stroke-linejoin="round"/>
<path d="M11.1952 16.7926C11.968 16.7926 12.5946 16.1661 12.5946 15.3932C12.5946 14.6203 11.968 13.9938 11.1952 13.9938C10.4223 13.9938 9.79578 14.6203 9.79578 15.3932C9.79578 16.1661 10.4223 16.7926 11.1952 16.7926Z" fill="#676879"/>
<path d="M11.1951 11.8951C11.6795 11.8951 12.153 11.7514 12.5557 11.4823C12.9584 11.2132 13.2723 10.8308 13.4577 10.3833C13.643 9.93581 13.6915 9.44341 13.597 8.96836C13.5025 8.49332 13.2693 8.05696 12.9268 7.71447C12.5843 7.37198 12.148 7.13874 11.6729 7.04425C11.1979 6.94976 10.7055 6.99825 10.258 7.18361C9.8105 7.36896 9.42803 7.68285 9.15894 8.08557C8.88984 8.4883 8.74622 8.96177 8.74622 9.44613" stroke="#676879" stroke-width="2.09909" stroke-linecap="round" stroke-linejoin="round"/>
</svg>
