<svg width="23" height="23" viewBox="0 0 23 23" fill="none" xmlns="http://www.w3.org/2000/svg">
<path d="M18.5755 4.12891H3.43993C3.05997 4.12891 2.75195 4.43692 2.75195 4.81688V17.2005C2.75195 17.5805 3.05997 17.8885 3.43993 17.8885H18.5755C18.9554 17.8885 19.2634 17.5805 19.2634 17.2005V4.81688C19.2634 4.43692 18.9554 4.12891 18.5755 4.12891Z" stroke="#676879" stroke-width="2.06394" stroke-linecap="round" stroke-linejoin="round"/>
<path d="M2.75195 7.56641H19.2634" stroke="#676879" stroke-width="2.06394" stroke-linecap="round" stroke-linejoin="round"/>
<path d="M14.4472 10.6641C14.4472 11.5764 14.0847 12.4513 13.4396 13.0964C12.7945 13.7415 11.9196 14.104 11.0073 14.104C10.095 14.104 9.22001 13.7415 8.5749 13.0964C7.9298 12.4513 7.56738 11.5764 7.56738 10.6641" stroke="#676879" stroke-width="2.06394" stroke-linecap="round" stroke-linejoin="round"/>
</svg>
