<svg width="32" height="33" viewBox="0 0 32 33" fill="none" xmlns="http://www.w3.org/2000/svg">
<path d="M25 28.95H6.99902C6.73381 28.95 6.47945 28.8446 6.29192 28.6571C6.10438 28.4695 5.99902 28.2152 5.99902 27.95V5.94995C5.99902 5.68473 6.10438 5.43038 6.29192 5.24284C6.47945 5.05531 6.73381 4.94995 6.99902 4.94995H19L26 11.95V27.95C26 28.0813 25.9741 28.2113 25.9239 28.3326C25.8736 28.454 25.8 28.5642 25.7071 28.6571C25.6143 28.7499 25.504 28.8236 25.3827 28.8738C25.2614 28.9241 25.1313 28.95 25 28.95Z" stroke="black" stroke-width="3" stroke-linecap="round" stroke-linejoin="round"/>
<path d="M21 16.45H11V24.45H21V16.45Z" stroke="black" stroke-width="3" stroke-linecap="round" stroke-linejoin="round"/>
<path d="M16 21.45V24.45" stroke="black" stroke-width="3" stroke-linecap="round" stroke-linejoin="round"/>
</svg>
