<svg width="23" height="23" viewBox="0 0 23 23" fill="none" xmlns="http://www.w3.org/2000/svg">
<path d="M18.9072 6.66016C19.4847 7.23763 19.9428 7.9232 20.2553 8.67771C20.5678 9.43222 20.7287 10.2409 20.7287 11.0576C20.7287 11.8742 20.5678 12.6829 20.2553 13.4374C19.9428 14.1919 19.4847 14.8775 18.9072 15.455" stroke="#676879" stroke-width="2.07296" stroke-linecap="round" stroke-linejoin="round"/>
<path d="M6.91015 14.5124H2.76423C2.58097 14.5124 2.40521 14.4396 2.27563 14.31C2.14604 14.1804 2.07324 14.0047 2.07324 13.8214V8.29352C2.07324 8.11026 2.14604 7.93451 2.27563 7.80492C2.40521 7.67534 2.58097 7.60253 2.76423 7.60253H6.91015L13.129 2.76562V19.3493L6.91015 14.5124Z" stroke="#676879" stroke-width="2.07296" stroke-linecap="round" stroke-linejoin="round"/>
<path d="M6.9082 7.60156V14.5114" stroke="#676879" stroke-width="2.07296" stroke-linecap="round" stroke-linejoin="round"/>
<path d="M16.4639 9.10156C16.7205 9.35822 16.9241 9.66291 17.063 9.99825C17.2019 10.3336 17.2734 10.693 17.2734 11.056C17.2734 11.4189 17.2019 11.7783 17.063 12.1137C16.9241 12.449 16.7205 12.7537 16.4639 13.0104" stroke="#676879" stroke-width="2.07296" stroke-linecap="round" stroke-linejoin="round"/>
</svg>
