<svg width="23" height="23" viewBox="0 0 23 23" fill="none" xmlns="http://www.w3.org/2000/svg">
<path d="M11.417 16.4468L15.7658 19.202C16.3217 19.5542 17.0119 19.0304 16.8469 18.3815L15.5905 13.4389C15.5551 13.3012 15.5593 13.1564 15.6025 13.021C15.6458 12.8856 15.7264 12.7652 15.8351 12.6736L19.7348 9.42776C20.2472 9.00128 19.9828 8.15088 19.3244 8.10816L14.2317 7.77764C14.0945 7.76784 13.9629 7.71927 13.8523 7.63759C13.7416 7.55591 13.6565 7.44449 13.6067 7.31628L11.7073 2.53315C11.6557 2.39707 11.5639 2.27992 11.4441 2.19725C11.3243 2.11459 11.1822 2.07031 11.0367 2.07031C10.8912 2.07031 10.7491 2.11459 10.6293 2.19725C10.5095 2.27992 10.4177 2.39707 10.3661 2.53315L8.46667 7.31628C8.41691 7.44449 8.33174 7.55591 8.2211 7.63759C8.11046 7.71927 7.9789 7.76784 7.84172 7.77764L2.74896 8.10816C2.09063 8.15088 1.82616 9.00128 2.33856 9.42776L6.23827 12.6736C6.34694 12.7652 6.42756 12.8856 6.47084 13.021C6.51412 13.1564 6.51832 13.3012 6.48293 13.4389L5.31771 18.0226C5.11977 18.8012 5.94797 19.4298 6.61503 19.0072L10.6564 16.4468C10.77 16.3744 10.902 16.336 11.0367 16.336C11.1714 16.336 11.3034 16.3744 11.417 16.4468V16.4468Z" stroke="#676879" stroke-width="2.06939" stroke-linecap="round" stroke-linejoin="round"/>
</svg>
