<svg width="14" height="13" viewBox="0 0 14 13" fill="none" xmlns="http://www.w3.org/2000/svg">
<path d="M6.55868 10.3879C6.82175 10.1964 7.17825 10.1964 7.44132 10.3879L10.0756 12.305C10.6635 12.7329 11.4552 12.1577 11.23 11.4663L10.224 8.37726C10.1224 8.06554 10.2351 7.724 10.5023 7.53393L13.0873 5.69445C13.6823 5.27103 13.3827 4.33337 12.6524 4.33337H9.47964C9.15405 4.33337 8.86564 4.1233 8.76578 3.81339L7.71386 0.548791C7.49046 -0.144515 6.50954 -0.144516 6.28614 0.54879L5.23422 3.81339C5.13436 4.1233 4.84595 4.33337 4.52036 4.33337H1.34756C0.617251 4.33337 0.317688 5.27103 0.912727 5.69445L3.49775 7.53393C3.76486 7.724 3.87757 8.06554 3.77604 8.37726L2.76997 11.4663C2.5448 12.1577 3.33652 12.7329 3.92443 12.305L6.55868 10.3879Z" fill="#dfdfdf"/>
</svg>
