<svg width="23" height="23" viewBox="0 0 23 23" fill="none" xmlns="http://www.w3.org/2000/svg">
<path d="M8.27734 4.82812V17.2445" stroke="#676879" stroke-width="2.06939" stroke-linecap="round" stroke-linejoin="round"/>
<path d="M2.06934 14.4155C2.06931 14.2565 2.12423 14.1025 2.22479 13.9795C2.32535 13.8564 2.46536 13.7719 2.6211 13.7403C3.24428 13.613 3.80436 13.2743 4.20659 12.7816C4.60883 12.2889 4.82852 11.6723 4.82852 11.0363C4.82852 10.4002 4.60883 9.78371 4.20659 9.29099C3.80436 8.79827 3.24428 8.45961 2.6211 8.33229C2.46536 8.30067 2.32535 8.21618 2.22479 8.09313C2.12423 7.97008 2.06931 7.81605 2.06934 7.65713V5.51792C2.06934 5.33498 2.14201 5.15952 2.27137 5.03016C2.40073 4.9008 2.57619 4.82812 2.75913 4.82812H19.3143C19.4972 4.82812 19.6727 4.9008 19.802 5.03016C19.9314 5.15952 20.0041 5.33498 20.0041 5.51792V7.65713C20.0041 7.81605 19.9492 7.97009 19.8486 8.09314C19.748 8.21619 19.608 8.30068 19.4523 8.33229C18.8291 8.45961 18.269 8.79827 17.8668 9.29099C17.4646 9.78371 17.2449 10.4002 17.2449 11.0363C17.2449 11.6724 17.4646 12.2889 17.8668 12.7816C18.269 13.2743 18.8291 13.613 19.4523 13.7403C19.608 13.7719 19.748 13.8564 19.8486 13.9795C19.9492 14.1025 20.0041 14.2565 20.0041 14.4155V16.5547C20.0041 16.7376 19.9314 16.9131 19.802 17.0424C19.6727 17.1718 19.4972 17.2445 19.3143 17.2445H2.75913C2.57619 17.2445 2.40073 17.1718 2.27137 17.0424C2.14201 16.9131 2.06934 16.7376 2.06934 16.5547V14.4155Z" stroke="#676879" stroke-width="2.06939" stroke-linecap="round" stroke-linejoin="round"/>
</svg>
