<svg width="23" height="23" viewBox="0 0 23 23" fill="none" xmlns="http://www.w3.org/2000/svg">
<path d="M11.1683 13.9603C13.0958 13.9603 14.6584 12.3978 14.6584 10.4702C14.6584 8.5427 13.0958 6.98013 11.1683 6.98013C9.24079 6.98013 7.67822 8.5427 7.67822 10.4702C7.67822 12.3978 9.24079 13.9603 11.1683 13.9603Z" stroke="#676879" stroke-width="2.09406" stroke-linecap="round" stroke-linejoin="round"/>
<path d="M5.56677 17.3958C6.09256 16.3621 6.89416 15.494 7.88283 14.8876C8.87149 14.2813 10.0087 13.9603 11.1685 13.9603C12.3282 13.9603 13.4654 14.2813 14.4541 14.8876C15.4427 15.4939 16.2443 16.362 16.7701 17.3958" stroke="#676879" stroke-width="2.09406" stroke-linecap="round" stroke-linejoin="round"/>
<path d="M17.4504 4.88607V3.14102" stroke="#676879" stroke-width="2.09406" stroke-linecap="round" stroke-linejoin="round"/>
<path d="M17.4507 4.88613L15.791 4.34688" stroke="#676879" stroke-width="2.09406" stroke-linecap="round" stroke-linejoin="round"/>
<path d="M17.4506 4.88606L16.4249 6.29784" stroke="#676879" stroke-width="2.09406" stroke-linecap="round" stroke-linejoin="round"/>
<path d="M17.4504 4.88606L18.4762 6.29784" stroke="#676879" stroke-width="2.09406" stroke-linecap="round" stroke-linejoin="round"/>
<path d="M17.4504 4.88613L19.1101 4.34688" stroke="#676879" stroke-width="2.09406" stroke-linecap="round" stroke-linejoin="round"/>
<path d="M19.4851 10.1649C19.5248 10.4978 19.5447 10.8329 19.5446 11.1682C19.5446 12.8249 19.0533 14.4444 18.1329 15.8218C17.2125 17.1993 15.9044 18.2729 14.3738 18.9069C12.8432 19.5409 11.1591 19.7067 9.53423 19.3835C7.9094 19.0603 6.4169 18.2626 5.24546 17.0911C4.07402 15.9197 3.27626 14.4272 2.95307 12.8024C2.62987 11.1775 2.79574 9.49335 3.42972 7.9628C4.0637 6.43224 5.1373 5.12405 6.51477 4.20366C7.89223 3.28327 9.51169 2.79201 11.1684 2.79201C11.4304 2.79201 11.6895 2.80387 11.9456 2.82759" stroke="#676879" stroke-width="2.09406" stroke-linecap="round" stroke-linejoin="round"/>
</svg>
