<svg width="23" height="23" viewBox="0 0 23 23" fill="none" xmlns="http://www.w3.org/2000/svg">
<path d="M6.91001 12.4372C8.81812 12.4372 10.3649 10.8904 10.3649 8.98228C10.3649 7.07417 8.81812 5.52734 6.91001 5.52734C5.00191 5.52734 3.45508 7.07417 3.45508 8.98228C3.45508 10.8904 5.00191 12.4372 6.91001 12.4372Z" stroke="#676879" stroke-width="2.07296" stroke-linecap="round" stroke-linejoin="round"/>
<path d="M13.1289 6.91016H21.0753" stroke="#676879" stroke-width="2.07296" stroke-linecap="round" stroke-linejoin="round"/>
<path d="M13.1289 11.0547H21.0753" stroke="#676879" stroke-width="2.07296" stroke-linecap="round" stroke-linejoin="round"/>
<path d="M15.2021 15.2031H21.0755" stroke="#676879" stroke-width="2.07296" stroke-linecap="round" stroke-linejoin="round"/>
<path d="M1.55664 16.5834C1.86335 15.3967 2.55564 14.3456 3.52471 13.5952C4.49378 12.8447 5.68471 12.4375 6.91038 12.4375C8.13605 12.4375 9.32699 12.8447 10.2961 13.5952C11.2651 14.3456 11.9574 15.3967 12.2641 16.5834" stroke="#676879" stroke-width="2.07296" stroke-linecap="round" stroke-linejoin="round"/>
</svg>
