<svg width="23" height="23" viewBox="0 0 23 23" fill="none" xmlns="http://www.w3.org/2000/svg">
<path d="M11.1951 15.743C13.1273 15.743 14.6936 14.1767 14.6936 12.2445C14.6936 10.3124 13.1273 8.74603 11.1951 8.74603C9.26298 8.74603 7.69666 10.3124 7.69666 12.2445C7.69666 14.1767 9.26298 15.743 11.1951 15.743Z" stroke="#676879" stroke-width="2.09909" stroke-linecap="round" stroke-linejoin="round"/>
<path d="M6.16028 18.8915C6.61991 17.9475 7.3357 17.1517 8.22596 16.5949C9.11622 16.0382 10.1451 15.743 11.1951 15.743C12.2451 15.743 13.2739 16.0382 14.1642 16.5949C15.0544 17.1516 15.7702 17.9475 16.2299 18.8915" stroke="#676879" stroke-width="2.09909" stroke-linecap="round" stroke-linejoin="round"/>
<path d="M17.8867 10.1977C18.5686 10.2952 19.2247 10.5261 19.8173 10.8773C20.41 11.2284 20.9276 11.6928 21.3408 12.244" stroke="#676879" stroke-width="2.09909" stroke-linecap="round" stroke-linejoin="round"/>
<path d="M14.6154 6.14214C14.818 5.71726 15.1245 5.35034 15.5065 5.07532C15.8885 4.8003 16.3337 4.62606 16.8009 4.56871C17.2682 4.51137 17.7423 4.57277 18.1795 4.74724C18.6167 4.92171 19.0028 5.20362 19.3022 5.56688C19.6015 5.93015 19.8044 6.36304 19.8921 6.82551C19.9798 7.28799 19.9495 7.76511 19.8039 8.21276C19.6584 8.6604 19.4022 9.0641 19.0593 9.38653C18.7163 9.70895 18.2976 9.93968 17.8418 10.0574" stroke="#676879" stroke-width="2.09909" stroke-linecap="round" stroke-linejoin="round"/>
<path d="M4.54823 10.0573C4.09248 9.93961 3.67377 9.70889 3.33082 9.38647C2.98787 9.06405 2.73177 8.66036 2.5862 8.21273C2.44063 7.76509 2.41029 7.28798 2.49799 6.82552C2.58569 6.36305 2.7886 5.93017 3.08794 5.56691C3.38729 5.20365 3.7734 4.92174 4.21058 4.74727C4.64776 4.57279 5.12187 4.51137 5.58907 4.5687C6.05628 4.62603 6.50148 4.80025 6.8835 5.07525C7.26553 5.35024 7.57203 5.71714 7.77467 6.14199" stroke="#676879" stroke-width="2.09909" stroke-linecap="round" stroke-linejoin="round"/>
<path d="M1.04919 12.2442C1.46232 11.693 1.98001 11.2285 2.57269 10.8773C3.16537 10.5262 3.82143 10.2952 4.50338 10.1977" stroke="#676879" stroke-width="2.09909" stroke-linecap="round" stroke-linejoin="round"/>
</svg>
