<svg width="23" height="23" viewBox="0 0 23 23" fill="none" xmlns="http://www.w3.org/2000/svg">
<path d="M7.69646 13.9935C10.2083 13.9935 12.2445 11.9573 12.2445 9.44548C12.2445 6.93368 10.2083 4.89746 7.69646 4.89746C5.18465 4.89746 3.14844 6.93368 3.14844 9.44548C3.14844 11.9573 5.18465 13.9935 7.69646 13.9935Z" stroke="#676879" stroke-width="2.09909" stroke-linecap="round" stroke-linejoin="round"/>
<path d="M13.5928 5.06694C14.2183 4.89069 14.8744 4.85054 15.5167 4.94919C16.1591 5.04784 16.7729 5.283 17.3167 5.63884C17.8605 5.99467 18.3218 6.46291 18.6694 7.01202C19.0171 7.56113 19.243 8.17836 19.332 8.82214C19.421 9.46592 19.371 10.1213 19.1854 10.7441C18.9998 11.3669 18.6828 11.9428 18.2559 12.4328C17.829 12.9228 17.3021 13.3157 16.7106 13.5849C16.1191 13.8541 15.4767 13.9935 14.8268 13.9936" stroke="#676879" stroke-width="2.09909" stroke-linecap="round" stroke-linejoin="round"/>
<path d="M1.39941 17.2649C2.10968 16.2546 3.05262 15.4299 4.14862 14.8607C5.24463 14.2914 6.46152 13.9942 7.69655 13.9941C8.93157 13.9941 10.1485 14.2912 11.2445 14.8604C12.3406 15.4296 13.2836 16.2541 13.9939 17.2644" stroke="#676879" stroke-width="2.09909" stroke-linecap="round" stroke-linejoin="round"/>
<path d="M14.8271 13.9941C16.0623 13.9932 17.2795 14.29 18.3757 14.8593C19.4719 15.4285 20.4147 16.2535 21.1244 17.2644" stroke="#676879" stroke-width="2.09909" stroke-linecap="round" stroke-linejoin="round"/>
</svg>
