<svg width="33" height="33" viewBox="0 0 33 33" fill="none" xmlns="http://www.w3.org/2000/svg">
<path d="M12.5212 21.253C13.7021 20.125 15.2723 19.4956 16.9053 19.4956C18.5383 19.4956 20.1085 20.125 21.2894 21.253" stroke="#676879" stroke-width="3" stroke-linecap="round" stroke-linejoin="round"/>
<path d="M8.27856 17.0103C10.5848 14.7571 13.681 13.4956 16.9053 13.4956C20.1295 13.4956 23.2258 14.7571 25.532 17.0103" stroke="#676879" stroke-width="3" stroke-linecap="round" stroke-linejoin="round"/>
<path d="M4.03918 12.7677C7.46936 9.38928 12.0907 7.49561 16.9052 7.49561C21.7198 7.49561 26.3411 9.38928 29.7713 12.7677" stroke="#676879" stroke-width="3" stroke-linecap="round" stroke-linejoin="round"/>
<path d="M16.9062 27.4951C18.0108 27.4951 18.9062 26.5997 18.9062 25.4951C18.9062 24.3905 18.0108 23.4951 16.9062 23.4951C15.8017 23.4951 14.9062 24.3905 14.9062 25.4951C14.9062 26.5997 15.8017 27.4951 16.9062 27.4951Z" fill="#676879"/>
</svg>
