<svg width="32" height="33" viewBox="0 0 32 33" fill="none" xmlns="http://www.w3.org/2000/svg">
<path d="M5.9978 5.94995L25.9978 27.95" stroke="black" stroke-width="3" stroke-linecap="round" stroke-linejoin="round"/>
<path d="M3.13074 13.2224C4.82876 11.5426 6.84025 10.2127 9.05093 9.30835" stroke="black" stroke-width="3" stroke-linecap="round" stroke-linejoin="round"/>
<path d="M7.37012 17.465C9.05536 15.8083 11.1843 14.6749 13.4997 14.2019" stroke="black" stroke-width="3" stroke-linecap="round" stroke-linejoin="round"/>
<path d="M11.6128 21.7077C12.7401 20.6316 14.2236 20.0075 15.7811 19.9541C17.3387 19.9006 18.8615 20.4217 20.0598 21.4181" stroke="black" stroke-width="3" stroke-linecap="round" stroke-linejoin="round"/>
<path d="M14.6201 8.00111C15.0746 7.96748 15.5335 7.95056 15.9969 7.95036C20.8135 7.9398 25.4387 9.83505 28.8629 13.2224" stroke="black" stroke-width="3" stroke-linecap="round" stroke-linejoin="round"/>
<path d="M20.9749 14.9915C22.3308 15.5882 23.5671 16.4264 24.6235 17.465" stroke="black" stroke-width="3" stroke-linecap="round" stroke-linejoin="round"/>
<path d="M16 27.95C17.1046 27.95 18 27.0545 18 25.95C18 24.8454 17.1046 23.95 16 23.95C14.8954 23.95 14 24.8454 14 25.95C14 27.0545 14.8954 27.95 16 27.95Z" fill="black"/>
</svg>
