<svg width="32" height="33" viewBox="0 0 32 33" fill="none" xmlns="http://www.w3.org/2000/svg">
<path d="M11.615 21.7077C12.7959 20.5797 14.366 19.9503 15.9991 19.9503C17.6321 19.9503 19.2022 20.5797 20.3831 21.7077" stroke="black" stroke-width="3" stroke-linecap="round" stroke-linejoin="round"/>
<path d="M28 7.94995L22 13.95" stroke="black" stroke-width="3" stroke-linecap="round" stroke-linejoin="round"/>
<path d="M28 13.95L22 7.94995" stroke="black" stroke-width="3" stroke-linecap="round" stroke-linejoin="round"/>
<path d="M3.13293 13.2224C6.55717 9.83505 11.1824 7.9398 15.999 7.95036C16.335 7.95036 16.6688 7.9593 17.0004 7.97716" stroke="black" stroke-width="3" stroke-linecap="round" stroke-linejoin="round"/>
<path d="M7.37231 17.4651C9.67373 15.2046 12.7731 13.9418 15.999 13.9504C16.3363 13.9504 16.6702 13.9637 17.0008 13.9902" stroke="black" stroke-width="3" stroke-linecap="round" stroke-linejoin="round"/>
<path d="M16 27.95C17.1046 27.95 18 27.0545 18 25.95C18 24.8454 17.1046 23.95 16 23.95C14.8954 23.95 14 24.8454 14 25.95C14 27.0545 14.8954 27.95 16 27.95Z" fill="black"/>
</svg>
