<svg width="14" height="15" viewBox="0 0 14 15" fill="none" xmlns="http://www.w3.org/2000/svg">
<path fill-rule="evenodd" clip-rule="evenodd" d="M2.10001 2.07495C1.81006 2.07495 1.57501 2.31 1.57501 2.59995V6.36918C1.57501 6.65913 1.81006 6.89418 2.10001 6.89418H5.86924C6.15919 6.89418 6.39424 6.65913 6.39424 6.36918V2.59995C6.39424 2.31 6.15919 2.07495 5.86924 2.07495H2.10001ZM2.62501 5.84418V3.12495H5.34424V5.84418H2.62501ZM8.13085 2.07495C7.8409 2.07495 7.60585 2.31 7.60585 2.59995V6.36918C7.60585 6.65913 7.8409 6.89418 8.13085 6.89418H11.9001C12.19 6.89418 12.4251 6.65913 12.4251 6.36918V2.59995C12.4251 2.31 12.19 2.07495 11.9001 2.07495H8.13085ZM8.65585 5.84418V3.12495H11.3751V5.84418H8.65585ZM1.57501 8.63079C1.57501 8.34084 1.81006 8.10579 2.10001 8.10579H5.86924C6.15919 8.10579 6.39424 8.34084 6.39424 8.63079V12.4C6.39424 12.69 6.15919 12.925 5.86924 12.925H2.10001C1.81006 12.925 1.57501 12.69 1.57501 12.4V8.63079ZM2.62501 9.15579V11.875H5.34424V9.15579H2.62501ZM8.13085 8.10579C7.8409 8.10579 7.60585 8.34084 7.60585 8.63079V12.4C7.60585 12.69 7.8409 12.925 8.13085 12.925H11.9001C12.19 12.925 12.4251 12.69 12.4251 12.4V8.63079C12.4251 8.34084 12.19 8.10579 11.9001 8.10579H8.13085ZM8.65585 11.875V9.15579H11.3751V11.875H8.65585Z" fill="#676879"/>
</svg>
