<svg width="23" height="23" viewBox="0 0 23 23" fill="none" xmlns="http://www.w3.org/2000/svg">
<path d="M16.1409 3.23409L12.4796 6.89536L12.9732 9.36324L15.441 9.85681L19.1023 6.19553L19.1027 6.19538C19.5559 7.26512 19.6642 8.44954 19.4127 9.58376C19.1612 10.718 18.5624 11.7456 17.6995 12.5235C16.8367 13.3014 15.7527 13.791 14.5986 13.924C13.4445 14.0571 12.2776 13.827 11.2603 13.2658L11.2604 13.2656L6.36679 18.9311C5.974 19.3234 5.44148 19.5437 4.88631 19.5436C4.33114 19.5434 3.79875 19.3228 3.40618 18.9302C3.01362 18.5377 2.793 18.0053 2.79285 17.4501C2.79269 16.8949 3.013 16.3624 3.40534 15.9696L9.07076 11.076L9.07064 11.0761C8.50943 10.0589 8.27933 8.89196 8.41237 7.73783C8.5454 6.5837 9.03496 5.49976 9.81289 4.63689C10.5908 3.77402 11.6184 3.17516 12.7526 2.92366C13.8869 2.67217 15.0713 2.78055 16.141 3.23373L16.1409 3.23409Z" stroke="#676879" stroke-width="2.09406" stroke-linecap="round" stroke-linejoin="round"/>
</svg>
