<svg width="30" height="30" viewBox="0 0 30 30" fill="none" xmlns="http://www.w3.org/2000/svg">
<path d="M26.4316 24.6968C28.6547 22.0798 30 18.6946 30 15C30 11.3067 28.656 7.9233 26.4341 5.3063C26.4288 5.29888 26.4238 5.29125 26.4188 5.2836C26.4093 5.26912 26.3998 5.25459 26.3881 5.24136C26.3783 5.22996 26.367 5.22021 26.3557 5.2105C26.3488 5.20456 26.342 5.19863 26.3355 5.19236C23.5831 2.01544 19.524 0 15 0C10.4754 0 6.41509 2.01666 3.66271 5.19481C3.65662 5.20067 3.65028 5.2062 3.64394 5.21173C3.63305 5.22123 3.62215 5.23075 3.61247 5.24197C3.6018 5.25418 3.59326 5.26709 3.58464 5.28013C3.57941 5.28803 3.57415 5.29598 3.56837 5.30385C1.34526 7.92024 0 11.3054 0 15C0 18.6946 1.34526 22.0798 3.56898 24.6968C3.57432 24.7041 3.57935 24.7116 3.5844 24.7192C3.59324 24.7324 3.60217 24.7458 3.61309 24.7586C3.62243 24.7691 3.63292 24.7782 3.64343 24.7873C3.65015 24.7932 3.65687 24.799 3.66332 24.8052C6.41571 27.9833 10.476 30 15.0006 30C19.5271 30 23.5886 27.9815 26.3416 24.8015C26.3479 24.7952 26.3547 24.7894 26.3615 24.7836C26.3708 24.7757 26.3801 24.7678 26.3881 24.7586C26.3974 24.7473 26.4051 24.7356 26.4128 24.7239C26.4189 24.7148 26.4249 24.7057 26.4316 24.6968ZM1.88434 15.9189H6.05795C6.12534 17.8743 6.40713 19.717 6.86535 21.3863C6.00588 21.8108 5.20277 22.3015 4.46582 22.8584C2.9962 20.8932 2.06445 18.5108 1.88434 15.9189ZM4.46582 7.14163C5.20277 7.69848 6.00649 8.18917 6.86535 8.6137C6.40713 10.283 6.12534 12.1257 6.05795 14.0811H1.88434C2.06445 11.4892 2.9962 9.10684 4.46582 7.14163ZM28.1157 14.0811H23.942C23.8747 12.1257 23.5929 10.2824 23.1346 8.6137C23.9941 8.18917 24.7978 7.69848 25.5348 7.14163C27.0044 9.10684 27.9356 11.4892 28.1157 14.0811ZM22.1012 14.0811H15.9189V10.4239C17.8382 10.3339 19.698 9.97305 21.4077 9.35555C21.7937 10.8123 22.035 12.4093 22.1012 14.0811ZM15.9189 8.58674V1.95663C17.9374 2.46202 19.7188 4.59936 20.8491 7.60414C19.3206 8.16344 17.6507 8.49792 15.9189 8.58674ZM14.0811 1.95663V8.58736C12.3493 8.49792 10.6794 8.16405 9.15156 7.60414C10.2812 4.59875 12.0632 2.46202 14.0811 1.95663ZM14.0811 10.4239V14.0811H7.8988C7.96435 12.4093 8.20632 10.8123 8.59226 9.35616C10.3014 9.97305 12.1618 10.3339 14.0811 10.4239ZM7.8988 15.9189H14.0811V19.5761C12.1618 19.6661 10.302 20.027 8.59226 20.6438C8.20632 19.1877 7.96496 17.5907 7.8988 15.9189ZM14.0811 21.4133V28.044C12.0632 27.538 10.2812 25.4013 9.15156 22.3959C10.6794 21.8366 12.3493 21.5021 14.0811 21.4133ZM15.9189 28.044V21.4133C17.6507 21.5027 19.3206 21.8366 20.8491 22.3959C19.7188 25.4013 17.9374 27.538 15.9189 28.044ZM15.9189 19.5761V15.9189H22.1012C22.0357 17.5907 21.7937 19.1877 21.4077 20.6438C19.6986 20.027 17.8382 19.6661 15.9189 19.5761ZM23.942 15.9189H28.1157C27.9356 18.5108 27.0044 20.8932 25.5342 22.8584C24.7972 22.3015 23.9935 21.8102 23.134 21.3863C23.5923 19.717 23.8741 17.8743 23.942 15.9189ZM24.3439 5.74185C23.7907 6.1529 23.1935 6.52046 22.56 6.84881C22.0013 5.38042 21.2944 4.09275 20.4699 3.04276C21.9205 3.70926 23.2339 4.62203 24.3439 5.74185ZM9.53014 3.04276C8.70559 4.09275 7.99865 5.37981 7.43997 6.84881C6.80654 6.52046 6.20926 6.15229 5.65609 5.74185C6.76611 4.62203 8.08013 3.70926 9.53014 3.04276ZM5.6567 24.2581C6.20988 23.8471 6.80716 23.4795 7.44058 23.1506C7.99927 24.619 8.7062 25.9066 9.53014 26.9566C8.08013 26.2907 6.76672 25.378 5.6567 24.2581ZM20.4699 26.9572C21.2944 25.9073 22.0013 24.6202 22.56 23.1506C23.1935 23.4789 23.7907 23.8471 24.3439 24.2581C23.2339 25.378 21.9205 26.2907 20.4699 26.9572Z" fill="#9E69F3"/>
<path d="M26.4316 24.6968C28.6547 22.0798 30 18.6946 30 15C30 11.3067 28.656 7.9233 26.4341 5.3063C26.4288 5.29888 26.4238 5.29125 26.4188 5.2836C26.4093 5.26912 26.3998 5.25459 26.3881 5.24136C26.3783 5.22996 26.367 5.22021 26.3557 5.2105C26.3488 5.20456 26.342 5.19863 26.3355 5.19236C23.5831 2.01544 19.524 0 15 0C10.4754 0 6.41509 2.01666 3.66271 5.19481C3.65662 5.20067 3.65028 5.2062 3.64394 5.21173C3.63305 5.22123 3.62215 5.23075 3.61247 5.24197C3.6018 5.25418 3.59326 5.26709 3.58464 5.28013C3.57941 5.28803 3.57415 5.29598 3.56837 5.30385C1.34526 7.92024 0 11.3054 0 15C0 18.6946 1.34526 22.0798 3.56898 24.6968C3.57432 24.7041 3.57935 24.7116 3.5844 24.7192C3.59324 24.7324 3.60217 24.7458 3.61309 24.7586C3.62243 24.7691 3.63292 24.7782 3.64343 24.7873C3.65015 24.7932 3.65687 24.799 3.66332 24.8052C6.41571 27.9833 10.476 30 15.0006 30C19.5271 30 23.5886 27.9815 26.3416 24.8015C26.3479 24.7952 26.3547 24.7894 26.3615 24.7836C26.3708 24.7757 26.3801 24.7678 26.3881 24.7586C26.3974 24.7473 26.4051 24.7356 26.4128 24.7239C26.4189 24.7148 26.4249 24.7057 26.4316 24.6968ZM1.88434 15.9189H6.05795C6.12534 17.8743 6.40713 19.717 6.86535 21.3863C6.00588 21.8108 5.20277 22.3015 4.46582 22.8584C2.9962 20.8932 2.06445 18.5108 1.88434 15.9189ZM4.46582 7.14163C5.20277 7.69848 6.00649 8.18917 6.86535 8.6137C6.40713 10.283 6.12534 12.1257 6.05795 14.0811H1.88434C2.06445 11.4892 2.9962 9.10684 4.46582 7.14163ZM28.1157 14.0811H23.942C23.8747 12.1257 23.5929 10.2824 23.1346 8.6137C23.9941 8.18917 24.7978 7.69848 25.5348 7.14163C27.0044 9.10684 27.9356 11.4892 28.1157 14.0811ZM22.1012 14.0811H15.9189V10.4239C17.8382 10.3339 19.698 9.97305 21.4077 9.35555C21.7937 10.8123 22.035 12.4093 22.1012 14.0811ZM15.9189 8.58674V1.95663C17.9374 2.46202 19.7188 4.59936 20.8491 7.60414C19.3206 8.16344 17.6507 8.49792 15.9189 8.58674ZM14.0811 1.95663V8.58736C12.3493 8.49792 10.6794 8.16405 9.15156 7.60414C10.2812 4.59875 12.0632 2.46202 14.0811 1.95663ZM14.0811 10.4239V14.0811H7.8988C7.96435 12.4093 8.20632 10.8123 8.59226 9.35616C10.3014 9.97305 12.1618 10.3339 14.0811 10.4239ZM7.8988 15.9189H14.0811V19.5761C12.1618 19.6661 10.302 20.027 8.59226 20.6438C8.20632 19.1877 7.96496 17.5907 7.8988 15.9189ZM14.0811 21.4133V28.044C12.0632 27.538 10.2812 25.4013 9.15156 22.3959C10.6794 21.8366 12.3493 21.5021 14.0811 21.4133ZM15.9189 28.044V21.4133C17.6507 21.5027 19.3206 21.8366 20.8491 22.3959C19.7188 25.4013 17.9374 27.538 15.9189 28.044ZM15.9189 19.5761V15.9189H22.1012C22.0357 17.5907 21.7937 19.1877 21.4077 20.6438C19.6986 20.027 17.8382 19.6661 15.9189 19.5761ZM23.942 15.9189H28.1157C27.9356 18.5108 27.0044 20.8932 25.5342 22.8584C24.7972 22.3015 23.9935 21.8102 23.134 21.3863C23.5923 19.717 23.8741 17.8743 23.942 15.9189ZM24.3439 5.74185C23.7907 6.1529 23.1935 6.52046 22.56 6.84881C22.0013 5.38042 21.2944 4.09275 20.4699 3.04276C21.9205 3.70926 23.2339 4.62203 24.3439 5.74185ZM9.53014 3.04276C8.70559 4.09275 7.99865 5.37981 7.43997 6.84881C6.80654 6.52046 6.20926 6.15229 5.65609 5.74185C6.76611 4.62203 8.08013 3.70926 9.53014 3.04276ZM5.6567 24.2581C6.20988 23.8471 6.80716 23.4795 7.44058 23.1506C7.99927 24.619 8.7062 25.9066 9.53014 26.9566C8.08013 26.2907 6.76672 25.378 5.6567 24.2581ZM20.4699 26.9572C21.2944 25.9073 22.0013 24.6202 22.56 23.1506C23.1935 23.4789 23.7907 23.8471 24.3439 24.2581C23.2339 25.378 21.9205 26.2907 20.4699 26.9572Z" />
</svg>
